<svg width="36" height="36" viewBox="0 0 36 36" fill="none" xmlns="http://www.w3.org/2000/svg">
<g clip-path="url(#clip0_221_1771)">
<path fill-rule="evenodd" clip-rule="evenodd" d="M3.13202 0.143543C3.62474 8.22215e-05 4.14243 -0.0363875 4.6504 0.0365785L4.6817 0.0391874C9.27303 0.801594 13.521 2.95107 16.8548 6.19876C20.1889 2.95202 24.4368 0.803474 29.0278 0.0417963L29.0565 0.0365785C29.569 -0.0363062 30.0912 0.00178465 30.5877 0.148272C31.0842 0.294759 31.5435 0.546223 31.9343 0.885636C32.3252 1.22505 32.6386 1.64449 32.8532 2.11555C33.0679 2.58661 33.1789 3.0983 33.1786 3.61597V22.2147C33.1815 22.7606 33.0608 23.3001 32.8253 23.7926C32.5899 24.2851 32.246 24.7179 31.8193 25.0584C31.3032 24.9616 30.7792 24.9127 30.254 24.9123H28.2973V20.999C28.2973 19.2692 27.6102 17.6102 26.387 16.3871C25.1639 15.1639 23.5049 14.4768 21.7751 14.4768C20.0453 14.4768 18.3864 15.1639 17.1632 16.3871C15.9401 17.6102 15.2529 19.2692 15.2529 20.999V30.4275C11.4283 27.7612 7.97411 26.5324 3.70598 25.8202C2.82661 25.7128 2.01726 25.2864 1.43151 24.6217C0.845763 23.9571 0.524382 23.1006 0.528357 22.2147V3.61336C0.52925 2.83165 0.783443 2.07129 1.25284 1.4462C1.72224 0.821119 2.38157 0.364984 3.13202 0.146152V0.143543Z" fill="#C0CCDE"/>
<path fill-rule="evenodd" clip-rule="evenodd" d="M15.2523 20.9988C15.2523 18.596 16.5489 16.4958 18.4847 15.3636V4.75586C17.5403 5.51244 16.168 5.51244 15.2236 4.75586V29.4777C15.2236 29.582 15.2315 29.6811 15.2497 29.7803L15.2523 20.9988ZM18.5134 34.6954V20.9988C18.5134 20.1339 18.857 19.3044 19.4686 18.6928C20.0802 18.0813 20.9096 17.7377 21.7745 17.7377C22.6394 17.7377 23.4689 18.0813 24.0805 18.6928C24.6921 19.3044 25.0357 20.1339 25.0357 20.9988V28.1732H30.2534C31.6373 28.1732 32.9644 28.7229 33.9429 29.7015C34.9215 30.68 35.4712 32.0071 35.4712 33.391V34.6954C35.4712 35.0414 35.3338 35.3732 35.0891 35.6178C34.8445 35.8624 34.5127 35.9999 34.1667 35.9999H19.8179C19.4719 35.9999 19.1401 35.8624 18.8955 35.6178C18.6509 35.3732 18.5134 35.0414 18.5134 34.6954Z" fill="#111827"/>
</g>
<defs>
<clipPath id="clip0_221_1771">
<rect width="36" height="36" fill="white"/>
</clipPath>
</defs>
</svg>
