<svg width="48" height="48" viewBox="0 0 48 48" fill="none" xmlns="http://www.w3.org/2000/svg">
<g clip-path="url(#clip0_221_1988)">
<path d="M27.5037 25.2711H25.6715L25.2313 26.6098H24.2529L26.092 21.3877H27.0838L28.9236 26.6098H27.9441L27.5037 25.2711ZM26.5839 22.2928C26.5839 22.2928 26.4659 22.8079 26.3636 23.1015L25.9005 24.4983H27.2678L26.8041 23.1015C26.7082 22.8066 26.5987 22.2928 26.5987 22.2928H26.5839Z" fill="black"/>
<path d="M30.3276 21.3883H32.0116C32.5777 21.3883 32.8352 21.4319 33.0623 21.5361C33.5852 21.7702 33.9158 22.2716 33.9158 22.9626C33.9158 23.5878 33.585 24.1678 33.0332 24.3906V24.4054C33.0332 24.4054 33.1066 24.4783 33.2102 24.663L34.2841 26.6114H33.2254L32.1882 24.6627H31.2754V26.6109H30.3271V21.3877H30.3277V21.3883H30.3276ZM32.1288 23.8372C32.636 23.8372 32.952 23.5358 32.952 23.0136C32.952 22.5137 32.7393 22.2049 31.9964 22.2049H31.2752V23.838L32.1288 23.8372Z" fill="black"/>
<path d="M35.9033 21.3887H37.6836C39.2941 21.3887 40.3451 22.3447 40.3451 23.9914C40.3451 25.6404 39.2944 26.6095 37.6836 26.6095H35.9033V21.3887ZM37.632 25.7937C38.6913 25.7937 39.3668 25.1689 39.3668 23.9915C39.3668 22.8306 38.6748 22.2048 37.632 22.2048H36.8519V25.7937H37.632Z" fill="black"/>
<path d="M42.0448 25.2709C42.0448 25.2709 42.611 25.8227 43.3463 25.8227C43.7433 25.8227 44.1043 25.6175 44.1043 25.1909C44.1043 24.2555 41.64 24.4172 41.64 22.8148C41.64 21.9462 42.3899 21.2998 43.3901 21.2998C44.4202 21.2998 44.9494 21.8588 44.9494 21.8588L44.5371 22.6315C44.5371 22.6315 44.0357 22.1758 43.3813 22.1758C42.9415 22.1758 42.5945 22.4333 42.5945 22.801C42.5945 23.7283 45.0504 23.4997 45.0504 25.1701C45.0504 26.0009 44.4184 26.6994 43.3296 26.6994C42.1679 26.6994 41.5283 25.9869 41.5283 25.9869L42.0448 25.2709Z" fill="black"/>
<path d="M16.7999 21.3888L15.9391 25.0011C15.8733 25.295 15.8513 25.552 15.8513 25.552H15.8362C15.8285 25.552 15.8211 25.302 15.7405 25.0011L14.814 21.3888H13.9904L13.0493 25.0011C12.968 25.3013 12.9612 25.552 12.9536 25.552H12.939C12.939 25.552 12.9159 25.2946 12.851 25.0011L12.2347 22.2962L11.7715 24.268L12.3576 26.6098H13.4535L14.2552 23.5215C14.3434 23.183 14.388 22.8376 14.388 22.8376H14.4019C14.4019 22.8376 14.4459 23.1831 14.5348 23.5215L15.3375 26.6098H16.4325L17.7795 21.3877L16.7999 21.3888Z" fill="black"/>
<path d="M22.6917 21.3887L21.8306 25.0011C21.7649 25.2949 21.7428 25.5519 21.7428 25.5519H21.7274C21.7207 25.5519 21.7136 25.3019 21.6328 25.0011L20.7053 21.3887H19.8825L18.9411 25.0011C18.8596 25.3012 18.8531 25.5519 18.8455 25.5519H18.8304C18.8304 25.5519 18.8084 25.2945 18.7425 25.0011L18.1224 22.2836L17.6592 24.2556L18.2498 26.6102H19.3452L20.1466 23.5217C20.2347 23.1832 20.2797 22.8379 20.2797 22.8379H20.2943C20.2943 22.8379 20.3384 23.1832 20.4267 23.5217L21.229 26.6102H22.3245L23.6713 21.3887H22.6917Z" fill="black"/>
<path d="M3.25139 25.271H1.41974L0.978578 26.6097H0L1.83888 21.3887H2.83217L4.6708 26.6097H3.69231L3.25139 25.271ZM2.33191 22.2927C2.33191 22.2927 2.21371 22.8078 2.11128 23.1014L1.64784 24.4982H3.01589L2.55172 23.102C2.45661 22.8074 2.34581 22.2927 2.34581 22.2927H2.33191Z" fill="black"/>
<path d="M9.84949 25.0004C9.93021 25.3014 9.9372 25.5516 9.94444 25.5516H9.95931C9.95931 25.5516 9.98191 25.2936 10.0474 25.0004L10.908 21.3877H11.8864L10.5399 26.6098H9.4445L8.64314 23.5211C8.55518 23.1828 8.51006 22.8374 8.51006 22.8374H8.49543C8.49543 22.8374 8.45186 23.1828 8.36301 23.5211L7.56107 26.6096H6.46519L5.15625 21.3888H6.13458L6.95863 25.0011C7.02496 25.295 7.04691 25.552 7.04691 25.552H7.0617C7.06959 25.552 7.07561 25.302 7.15738 25.0011L8.09881 21.3888H8.92123L9.84949 25.0004Z" fill="black"/>
<path d="M47.1029 23.0869C47.6028 23.0869 48.0006 23.4911 48.0006 23.9996C48.0006 24.5116 47.6028 24.913 47.1029 24.913C46.6122 24.913 46.2158 24.5117 46.2158 23.9996C46.2158 23.4914 46.6122 23.0869 47.1029 23.0869ZM47.1029 24.8065C47.5464 24.8065 47.8871 24.4562 47.8871 24.0003C47.8871 23.5465 47.546 23.1941 47.1029 23.1941C46.6671 23.1941 46.3287 23.5474 46.3287 24.0003C46.3286 24.4567 46.6674 24.8065 47.1029 24.8065ZM46.8113 23.4964H47.1456C47.3164 23.4964 47.4387 23.6129 47.4387 23.7893C47.4387 23.9379 47.3488 24.0334 47.2443 24.059V24.0637C47.2443 24.0637 47.2535 24.0765 47.2779 24.1196L47.477 24.5052H47.3532L47.1393 24.0841H46.9217V24.5052H46.8126L46.8113 23.4964ZM47.1338 23.9874C47.25 23.9874 47.3252 23.9127 47.3252 23.7889C47.3252 23.668 47.2499 23.5962 47.1338 23.5962H46.9219V23.9872L47.1338 23.9874Z" fill="#2E2D2D"/>
</g>
<defs>
<clipPath id="clip0_221_1988">
<rect width="48" height="48" fill="white"/>
</clipPath>
</defs>
</svg>
