<svg width="48" height="48" viewBox="0 0 48 48" fill="none" xmlns="http://www.w3.org/2000/svg">
<g clip-path="url(#clip0_221_1989)">
<path d="M0 5.33333C0 2.388 2.388 0 5.33333 0H42.6667C45.612 0 48 2.388 48 5.33333V42.6667C48 45.612 45.612 48 42.6667 48H5.33333C2.388 48 0 45.612 0 42.6667V5.33333Z" fill="#2196F3"/>
<path d="M28 14.667H37.3333V17.3337H28V14.667ZM20.6827 23.2377C21.4627 22.8577 23.22 21.9923 23.22 19.4283C23.22 14.6057 17.9507 14.6683 16.976 14.6683H8V33.335H17.3667C18.1467 33.3337 24 33.1137 24 27.999C24 24.699 21.8533 23.619 20.6827 23.2377ZM12 17.9043H15.904C16.2933 17.9043 18.8307 18.043 18.8307 20.0003C18.8307 21.9563 16.88 22.2857 16.2947 22.2857H12V17.9043ZM16.448 30.095H11.9587V24.9537H16.448C17.4227 24.9537 19.5693 25.2697 19.5693 27.6203C19.5693 29.9683 16.8373 30.095 16.448 30.095ZM35.2507 29.8603C34.6307 30.2457 34.012 30.4417 33.1853 30.4417C30.084 30.4417 29.4667 27.827 29.4667 26.6683H40C40 25.5097 40 24.6537 39.7933 23.687C39.5853 22.7203 38.1733 18.667 32.9787 18.667C25.7187 18.667 25.3333 25.0377 25.3333 26.0003C25.3333 26.9643 25.5413 28.1243 25.956 28.895C26.368 29.8603 26.7813 30.6337 27.4013 31.2097C28.02 31.7897 28.8453 32.3643 29.672 32.7523C30.704 33.1403 31.7373 33.3337 32.7707 33.3337C34.4213 33.3337 35.8693 32.9497 37.108 32.1763C38.3493 31.4043 39.1747 30.2457 39.7933 28.7017H36.2827C36.076 29.0883 35.8693 29.4723 35.2507 29.8603ZM32.9787 21.3697C35.0027 21.3697 35.8693 23.4923 36.0747 24.455H29.4667C29.4667 24.2643 29.9613 21.3697 32.9787 21.3697Z" fill="white"/>
</g>
<defs>
<clipPath id="clip0_221_1989">
<rect width="48" height="48" fill="white"/>
</clipPath>
</defs>
</svg>
