<svg width="36" height="36" viewBox="0 0 36 36" fill="none" xmlns="http://www.w3.org/2000/svg">
<path d="M13.8465 13.4764L17.4568 10.2106C18.2872 9.46097 19.2706 8.9009 20.3389 8.56921C21.4072 8.23752 22.5349 8.14214 23.6438 8.28968L28.4216 8.92226L35.0509 5.3402C35.1488 5.28718 35.2589 5.26052 35.3702 5.26283C35.4816 5.26515 35.5904 5.29635 35.6861 5.35339C35.7818 5.41042 35.861 5.49134 35.916 5.5882C35.9709 5.68506 35.9998 5.79454 35.9998 5.90592V18.0896C35.9997 18.4984 35.9021 18.9013 35.7152 19.2649C35.5283 19.6285 35.2573 19.9423 34.9249 20.1802L30.4608 23.3714L20.7895 15.2584L17.588 17.8504C17.0039 18.3129 16.2634 18.5311 15.5219 18.4592C14.7804 18.3873 14.0956 18.0308 13.6114 17.4647C13.1271 16.8986 12.8811 16.1668 12.9249 15.4231C12.9688 14.6794 13.2991 13.9817 13.8465 13.4764Z" fill="#111827"/>
<path fill-rule="evenodd" clip-rule="evenodd" d="M13.8474 13.4763L17.3138 10.3443C16.4337 9.59676 15.4001 9.05175 14.2861 8.74781C13.1721 8.44387 12.0049 8.38842 10.8671 8.58539L6.14584 9.40312L0.966888 6.61564C0.8667 6.56163 0.75418 6.53463 0.640393 6.53729C0.526606 6.53995 0.415471 6.57218 0.317919 6.63082C0.220366 6.68945 0.139756 6.77247 0.0840157 6.87171C0.0282755 6.97094 -0.00067485 7.08298 1.19409e-05 7.19679V18.0896C1.19409e-05 18.9587 0.429449 19.7713 1.14689 20.2599L15.1743 29.8232C16.0608 30.4279 17.1111 30.7466 18.1841 30.7364C19.2571 30.7263 20.3012 30.3879 21.1761 29.7667L30.8577 23.14L30.8295 23.1142L30.4617 23.374L25.6274 19.3213C26.5703 18.9823 27.421 18.4275 28.1114 17.7013C28.2581 17.5493 28.3735 17.3699 28.4509 17.1734C28.5283 16.9769 28.5662 16.767 28.5625 16.5558C28.5588 16.3446 28.5136 16.1362 28.4293 15.9425C28.3451 15.7488 28.2235 15.5735 28.0715 15.4268C27.9196 15.2801 27.7402 15.1647 27.5437 15.0873C27.3471 15.0099 27.1373 14.972 26.9261 14.9757C26.7149 14.9794 26.5064 15.0246 26.3127 15.1089C26.119 15.1931 25.9438 15.3147 25.7971 15.4667C25.3214 15.963 24.7685 16.2818 24.1205 16.4104C23.5573 16.5184 22.8399 16.5004 21.9373 16.2227L20.7904 15.2584L17.5889 17.8504C17.0049 18.3129 16.2644 18.5311 15.5229 18.4592C14.7814 18.3873 14.0966 18.0308 13.6123 17.4647C13.1281 16.8986 12.882 16.1668 12.9259 15.4231C12.9697 14.6794 13.3 13.9817 13.8474 13.4763Z" fill="#C0CCDE"/>
</svg>
