<svg width="36" height="36" viewBox="0 0 36 36" fill="none" xmlns="http://www.w3.org/2000/svg">
<g clip-path="url(#clip0_221_1766)">
<path fill-rule="evenodd" clip-rule="evenodd" d="M25.8668 1.78565C22.3649 0.0974856 18.4105 -0.411511 14.5953 0.334807C10.78 1.08112 7.30888 3.04264 4.70119 5.92592C2.09351 8.80921 0.489415 12.4593 0.128875 16.3301C-0.231666 20.2009 0.670726 24.0845 2.70106 27.3998L0.13083 34.2468C0.0501297 34.4614 0.0277733 34.6936 0.0660399 34.9196C0.104306 35.1457 0.201828 35.3576 0.348664 35.5337C0.4955 35.7098 0.6864 35.8438 0.901908 35.9221C1.11742 36.0004 1.34983 36.0201 1.57545 35.9793L10.544 34.3557C14.8505 36.3005 19.749 36.4739 24.1822 34.8384C28.6154 33.2028 32.2277 29.8896 34.2392 25.6139C36.2507 21.3382 36.5002 16.4429 34.9338 11.9848C33.3674 7.52675 30.1108 3.86343 25.8668 1.78565Z" fill="#C0CCDE"/>
<path d="M10.2705 11.6796C10.2705 12.1954 10.4754 12.6902 10.8402 13.055C11.205 13.4198 11.6998 13.6247 12.2157 13.6247C12.7316 13.6247 13.2263 13.4198 13.5911 13.055C13.9559 12.6902 14.1609 12.1954 14.1609 11.6796C14.1609 11.1637 13.9559 10.6689 13.5911 10.3041C13.2263 9.93931 12.7316 9.73438 12.2157 9.73438C11.6998 9.73438 11.205 9.93931 10.8402 10.3041C10.4754 10.6689 10.2705 11.1637 10.2705 11.6796Z" fill="#111827"/>
<path d="M21.8594 11.6796C21.8594 12.1954 22.0643 12.6902 22.4291 13.055C22.7939 13.4198 23.2887 13.6247 23.8046 13.6247C24.3204 13.6247 24.8152 13.4198 25.18 13.055C25.5448 12.6902 25.7497 12.1954 25.7497 11.6796C25.7497 11.1637 25.5448 10.6689 25.18 10.3041C24.8152 9.93931 24.3204 9.73438 23.8046 9.73438C23.2887 9.73438 22.7939 9.93931 22.4291 10.3041C22.0643 10.6689 21.8594 11.1637 21.8594 11.6796Z" fill="#111827"/>
<path d="M18.0502 28.3744C20.4577 28.3744 22.7666 27.418 24.4689 25.7156C26.1713 24.0133 27.1277 21.7044 27.1277 19.2969H8.97266C8.97266 21.7044 9.92903 24.0133 11.6314 25.7156C13.3338 27.418 15.6427 28.3744 18.0502 28.3744Z" fill="#111827"/>
</g>
<defs>
<clipPath id="clip0_221_1766">
<rect width="36" height="36" fill="white"/>
</clipPath>
</defs>
</svg>
