<svg width="36" height="36" viewBox="0 0 36 36" fill="none" xmlns="http://www.w3.org/2000/svg">
<g clip-path="url(#clip0_221_1859)">
<path fill-rule="evenodd" clip-rule="evenodd" d="M4.62128 0C2.16081 0 0.28418 2.04605 0.28418 4.4205V31.5743C0.28418 33.9514 2.16081 35.9974 4.62128 35.9974H26.0592C28.5196 35.9974 30.3963 33.9514 30.3963 31.5743V4.56125C30.3963 3.35153 29.9157 2.19136 29.0603 1.33596C28.2049 0.480559 27.0447 0 25.835 0H4.62128Z" fill="#C0CCDE"/>
<path fill-rule="evenodd" clip-rule="evenodd" d="M2.239 26.4707H0.28418V28.4255V31.5793C0.28418 33.9538 2.16081 35.9998 4.62128 35.9998H26.0592C28.5196 35.9998 30.3963 33.9538 30.3963 31.5767V28.4255V26.4707H2.239Z" fill="#111827"/>
<path fill-rule="evenodd" clip-rule="evenodd" d="M7.12609 7.59277C6.69405 7.59277 6.2797 7.7644 5.9742 8.0699C5.6687 8.3754 5.49707 8.78975 5.49707 9.22179C5.49707 9.65383 5.6687 10.0682 5.9742 10.3737C6.2797 10.6792 6.69405 10.8508 7.12609 10.8508H13.6291C14.0612 10.8508 14.4755 10.6792 14.781 10.3737C15.0865 10.0682 15.2581 9.65383 15.2581 9.22179C15.2581 8.78975 15.0865 8.3754 14.781 8.0699C14.4755 7.7644 14.0612 7.59277 13.6291 7.59277H7.12609ZM7.12609 15.068C6.69405 15.068 6.2797 15.2396 5.9742 15.5451C5.6687 15.8506 5.49707 16.265 5.49707 16.697C5.49707 17.1291 5.6687 17.5434 5.9742 17.8489C6.2797 18.1544 6.69405 18.3261 7.12609 18.3261H10.3789C10.811 18.3261 11.2253 18.1544 11.5308 17.8489C11.8363 17.5434 12.0079 17.1291 12.0079 16.697C12.0079 16.265 11.8363 15.8506 11.5308 15.5451C11.2253 15.2396 10.811 15.068 10.3789 15.068H7.12609Z" fill="#111827"/>
<path d="M24.2606 19.0268C24.0724 19.2167 23.8304 19.3441 23.5673 19.3917L17.9687 20.3978C17.7634 20.4347 17.5523 20.4219 17.353 20.3603C17.1537 20.2987 16.9721 20.1902 16.8235 20.0438C16.6748 19.8975 16.5635 19.7176 16.4988 19.5193C16.4341 19.321 16.418 19.1101 16.4517 18.9043L17.3875 13.2171C17.4315 12.9475 17.5592 12.6986 17.7524 12.5055L28.4804 1.82957C28.7227 1.58527 29.011 1.39137 29.3286 1.25905C29.6462 1.12672 29.9869 1.05859 30.331 1.05859C30.6751 1.05859 31.0157 1.12672 31.3334 1.25905C31.651 1.39137 31.9392 1.58527 32.1816 1.82957L34.9444 4.59239C35.1887 4.83469 35.3826 5.12296 35.5149 5.44058C35.6472 5.7582 35.7153 6.09887 35.7153 6.44295C35.7153 6.78703 35.6472 7.12771 35.5149 7.44532C35.3826 7.76294 35.1887 8.05122 34.9444 8.29352L24.2606 19.0268Z" fill="#111827"/>
</g>
<defs>
<clipPath id="clip0_221_1859">
<rect width="36" height="36" fill="white"/>
</clipPath>
</defs>
</svg>
