<svg xmlns="http://www.w3.org/2000/svg" xmlns:xlink="http://www.w3.org/1999/xlink" fill="none" version="1.1" width="16" height="16" viewBox="0 0 16 16"><defs><clipPath id="master_svg0_0_14279"><rect x="0" y="0" width="16" height="16" rx="0"/></clipPath></defs><g clip-path="url(#master_svg0_0_14279)"><g><path d="M13.6663078125,8.000003373069763C13.6663078125,11.129633373069764,11.1293078125,13.666633373069763,7.9996778125,13.666633373069763C7.9996778125,13.666633373069763,7.9996778125,15.666633373069763,7.9996778125,15.666633373069763C12.2339078125,15.666633373069763,15.6663078125,12.234233373069763,15.6663078125,8.000003373069763C15.6663078125,8.000003373069763,13.6663078125,8.000003373069763,13.6663078125,8.000003373069763C13.6663078125,8.000003373069763,13.6663078125,8.000003373069763,13.6663078125,8.000003373069763ZM7.9996778125,13.666633373069763C4.8700578125,13.666633373069763,2.3330078125,11.129633373069764,2.3330078125,8.000003373069763C2.3330078125,8.000003373069763,0.3330078125,8.000003373069763,0.3330078125,8.000003373069763C0.3330078125,12.234233373069763,3.7654878125,15.666633373069763,7.9996778125,15.666633373069763C7.9996778125,15.666633373069763,7.9996778125,13.666633373069763,7.9996778125,13.666633373069763C7.9996778125,13.666633373069763,7.9996778125,13.666633373069763,7.9996778125,13.666633373069763ZM2.3330078125,8.000003373069763C2.3330078125,4.870383373069763,4.8700578125,2.333333373069763,7.9996778125,2.333333373069763C7.9996778125,2.333333373069763,7.9996778125,0.3333333730697632,7.9996778125,0.3333333730697632C3.7654878125,0.3333333730697632,0.3330078125,3.765813373069763,0.3330078125,8.000003373069763C0.3330078125,8.000003373069763,2.3330078125,8.000003373069763,2.3330078125,8.000003373069763C2.3330078125,8.000003373069763,2.3330078125,8.000003373069763,2.3330078125,8.000003373069763ZM7.9996778125,2.333333373069763C11.1293078125,2.333333373069763,13.6663078125,4.870383373069763,13.6663078125,8.000003373069763C13.6663078125,8.000003373069763,15.6663078125,8.000003373069763,15.6663078125,8.000003373069763C15.6663078125,3.765813373069763,12.2339078125,0.3333333730697632,7.9996778125,0.3333333730697632C7.9996778125,0.3333333730697632,7.9996778125,2.333333373069763,7.9996778125,2.333333373069763C7.9996778125,2.333333373069763,7.9996778125,2.333333373069763,7.9996778125,2.333333373069763Z" fill="#4B5563" fill-opacity="1"/></g><g><path d="M9.250564375,6.89750158493042C9.615894375,7.31168158493042,10.247824375,7.35128158493042,10.662004375,6.98594158493042C11.076184375,6.62061158493042,11.115784375,5.98868158493042,10.750454375,5.57450158493042C10.750454375,5.57450158493042,9.250564375,6.89750158493042,9.250564375,6.89750158493042C9.250564375,6.89750158493042,9.250564375,6.89750158493042,9.250564375,6.89750158493042ZM10.750454375,10.42550158493042C11.115784375,10.01131158493042,11.076184375,9.37939158493042,10.662004375,9.01405158493042C10.247824375,8.64872158493042,9.615894375,8.688311584930421,9.250564375,9.102501584930419C9.250564375,9.102501584930419,10.750454375,10.42550158493042,10.750454375,10.42550158493042C10.750454375,10.42550158493042,10.750454375,10.42550158493042,10.750454375,10.42550158493042ZM10.750454375,5.57450158493042C10.257794375,5.01597558493042,9.606744375,4.62071558493042,8.883924375,4.44130958493042C8.883924375,4.44130958493042,8.402134375,6.38241158493042,8.402134375,6.38241158493042C8.730694374999999,6.46396158493042,9.026624375,6.64362158493042,9.250564375,6.89750158493042C9.250564375,6.89750158493042,10.750454375,5.57450158493042,10.750454375,5.57450158493042C10.750454375,5.57450158493042,10.750454375,5.57450158493042,10.750454375,5.57450158493042ZM8.883924375,4.44130958493042C8.161104375,4.26190268493042,7.400784375000001,4.30686268493042,6.704144375,4.57020058493042C6.704144375,4.57020058493042,7.411334375,6.4410015849304205,7.411334375,6.4410015849304205C7.727984375,6.32130158493042,8.073584375,6.30086158493042,8.402134375,6.38241158493042C8.402134375,6.38241158493042,8.883924375,4.44130958493042,8.883924375,4.44130958493042C8.883924375,4.44130958493042,8.883924375,4.44130958493042,8.883924375,4.44130958493042ZM6.704144375,4.57020058493042C6.007504375,4.83353958493042,5.407574375,5.30277258493042,4.984171375,5.91546158493042C4.984171375,5.91546158493042,6.629524375,7.05248158493042,6.629524375,7.05248158493042C6.821974375,6.77398158493042,7.094674375,6.56070158493042,7.411334375,6.4410015849304205C7.411334375,6.4410015849304205,6.704144375,4.57020058493042,6.704144375,4.57020058493042C6.704144375,4.57020058493042,6.704144375,4.57020058493042,6.704144375,4.57020058493042ZM4.984171375,5.91546158493042C4.560772375,6.52815158493042,4.333984375,7.25524158493042,4.333984375,8.00000158493042C4.333984375,8.00000158493042,6.333984375,8.00000158493042,6.333984375,8.00000158493042C6.333984375,7.661471584930419,6.437074375,7.33098158493042,6.629524375,7.05248158493042C6.629524375,7.05248158493042,4.984171375,5.91546158493042,4.984171375,5.91546158493042C4.984171375,5.91546158493042,4.984171375,5.91546158493042,4.984171375,5.91546158493042ZM4.333984375,8.00000158493042C4.333984375,8.74475158493042,4.560772375,9.47184158493042,4.984171375,10.08453158493042C4.984171375,10.08453158493042,6.629524375,8.947511584930421,6.629524375,8.947511584930421C6.437074375,8.66902158493042,6.333984375,8.338521584930419,6.333984375,8.00000158493042C6.333984375,8.00000158493042,4.333984375,8.00000158493042,4.333984375,8.00000158493042C4.333984375,8.00000158493042,4.333984375,8.00000158493042,4.333984375,8.00000158493042ZM4.984171375,10.08453158493042C5.407574375,10.69722158493042,6.007504375,11.16646158493042,6.704144375,11.42980158493042C6.704144375,11.42980158493042,7.411334375,9.55900158493042,7.411334375,9.55900158493042C7.094674375,9.43930158493042,6.821974375,9.22601158493042,6.629524375,8.947511584930421C6.629524375,8.947511584930421,4.984171375,10.08453158493042,4.984171375,10.08453158493042C4.984171375,10.08453158493042,4.984171375,10.08453158493042,4.984171375,10.08453158493042ZM6.704144375,11.42980158493042C7.400784375000001,11.69313158493042,8.161104375,11.73809158493042,8.883924375,11.55869158493042C8.883924375,11.55869158493042,8.402134375,9.61758158493042,8.402134375,9.61758158493042C8.073584375,9.69913158493042,7.727984375,9.678701584930419,7.411334375,9.55900158493042C7.411334375,9.55900158493042,6.704144375,11.42980158493042,6.704144375,11.42980158493042C6.704144375,11.42980158493042,6.704144375,11.42980158493042,6.704144375,11.42980158493042ZM8.883924375,11.55869158493042C9.606744375,11.379281584930421,10.257794375,10.98402158493042,10.750454375,10.42550158493042C10.750454375,10.42550158493042,9.250564375,9.102501584930419,9.250564375,9.102501584930419C9.026624375,9.35637158493042,8.730694374999999,9.53604158493042,8.402134375,9.61758158493042C8.402134375,9.61758158493042,8.883924375,11.55869158493042,8.883924375,11.55869158493042C8.883924375,11.55869158493042,8.883924375,11.55869158493042,8.883924375,11.55869158493042Z" fill="#4B5563" fill-opacity="1"/></g></g></svg>