<svg width="36" height="36" viewBox="0 0 36 36" fill="none" xmlns="http://www.w3.org/2000/svg">
<g clip-path="url(#clip0_221_1747)">
<path fill-rule="evenodd" clip-rule="evenodd" d="M19.6071 14.1328C20.7386 14.4825 21.6129 15.4185 21.8726 16.5988L21.924 16.8225C23.0297 21.8908 30.2477 21.9242 31.4023 16.8662L31.4614 16.6014C31.6088 15.9548 31.9439 15.3663 32.4248 14.9097C32.9056 14.4531 33.5107 14.1488 34.164 14.0351C34.4031 13.9939 34.6269 13.9399 34.8454 13.8731C35.5757 15.4159 36 17.2082 36 19.0262C36 21.8368 34.9894 25.2079 33.3849 26.9308C33.5245 28.5883 33.1241 30.2465 32.2435 31.6577C31.3629 33.0689 30.0494 34.1573 28.4991 34.7602C26.9488 35.3632 25.2451 35.4484 23.6424 35.0031C22.0397 34.5578 20.6241 33.6059 19.6071 32.2897V14.1328ZM16.3929 6.03795C14.7986 7.8328 14.7986 10.7282 16.3929 12.5231V32.2871C15.3759 33.6034 13.9603 34.5553 12.3576 35.0006C10.7549 35.4458 9.05116 35.3606 7.5009 34.7577C5.95064 34.1547 4.63708 33.0663 3.75648 31.6551C2.87587 30.244 2.47549 28.5858 2.61514 26.9282C1.01057 25.2079 0 21.8394 0 19.0288C0 15.1948 1.87714 11.4688 4.57457 10.0031C4.41776 8.57146 4.7242 7.12727 5.44888 5.88268C6.17355 4.63809 7.27826 3.65871 8.60073 3.0884C9.92319 2.5181 11.3937 2.38694 12.7962 2.71418C14.1987 3.04143 15.4593 3.80983 16.3929 4.90652V6.03795Z" fill="#C0CCDE"/>
<path d="M15.3623 19.2706C16.0514 18.2677 16.3497 17.1697 16.3908 16.6426V22.8526C15.3569 23.69 14.1034 24.2114 12.7805 24.3543C12.3616 24.3928 11.9442 24.2655 11.6181 23.9996C11.292 23.7338 11.0831 23.3507 11.0363 22.9326C10.9896 22.5145 11.1086 22.0947 11.3679 21.7634C11.6271 21.4321 12.006 21.2157 12.4231 21.1606C13.732 21.014 14.6834 20.2631 15.3623 19.2706Z" fill="#111827"/>
<path d="M2.11426 12.2477C2.80854 11.2886 3.64169 10.512 4.57512 10.0054C4.54851 9.76461 4.53478 9.52255 4.53397 9.28027C4.63426 10.2831 5.04312 11.0314 5.51626 11.5714C6.10512 12.24 6.72483 12.5151 6.8714 12.5486C7.07739 12.5955 7.27211 12.6825 7.44446 12.8047C7.61681 12.9269 7.7634 13.0819 7.87586 13.2607C7.98833 13.4396 8.06446 13.6388 8.09993 13.8471C8.13539 14.0554 8.12948 14.2686 8.08254 14.4746C8.03561 14.6805 7.94855 14.8753 7.82636 15.0476C7.70417 15.22 7.54923 15.3666 7.37038 15.479C7.19153 15.5915 6.99229 15.6676 6.78402 15.7031C6.57575 15.7385 6.36253 15.7326 6.15654 15.6857C5.2334 15.4723 4.04797 14.7728 3.10169 13.6928C2.71526 13.2529 2.38369 12.7676 2.11426 12.2477Z" fill="#111827"/>
<path d="M2.67545 28.7178C2.58699 28.1264 2.56714 27.5267 2.61631 26.9307C2.04786 26.2912 1.58439 25.5656 1.24316 24.781C1.44888 24.5495 1.67259 24.3387 1.91174 24.151C2.24732 23.9001 2.6676 23.7902 3.08303 23.8447C3.49845 23.8992 3.87616 24.1138 4.13568 24.4427C4.39521 24.7716 4.51601 25.1889 4.47237 25.6056C4.42872 26.0223 4.22407 26.4055 3.90202 26.6735C3.44431 27.0335 2.96859 27.8152 2.67545 28.7178Z" fill="#111827"/>
<path d="M33.4043 26.91L33.3452 26.9075C32.9258 26.8718 32.5137 26.7765 32.1212 26.6246C31.1878 26.2749 30.0615 25.5446 29.0792 24.1175C28.8371 23.7662 28.4654 23.5256 28.0458 23.4484C27.6263 23.3713 27.1933 23.4639 26.8421 23.706C26.4908 23.9481 26.2502 24.3198 26.173 24.7394C26.0959 25.1589 26.1885 25.5919 26.4306 25.9432C27.7935 27.9232 29.4598 29.0572 30.9898 29.6332C31.6712 29.8903 32.3552 30.0446 32.9903 30.1037C33.3433 29.0855 33.4782 28.0044 33.3863 26.9306L33.4043 26.91Z" fill="#111827"/>
<path fill-rule="evenodd" clip-rule="evenodd" d="M28.6752 2.31913C28.1866 0.171984 25.1215 0.184841 24.6509 2.33713L24.6329 2.42198L24.5969 2.58656C24.3331 3.76948 23.7241 4.84745 22.847 5.68383C21.9699 6.5202 20.8642 7.07732 19.67 7.28455C17.4329 7.67541 17.4329 10.8871 19.67 11.278C20.8681 11.4859 21.9771 12.046 22.8556 12.8869C23.734 13.7278 24.342 14.8112 24.602 15.9991L24.6535 16.2254C25.1215 18.3751 28.184 18.3906 28.6752 16.2434L28.7343 15.9811C29.0042 14.797 29.6181 13.719 30.4988 12.8826C31.3795 12.0463 32.4878 11.4889 33.6843 11.2806C35.9266 10.8923 35.9266 7.67027 33.6843 7.28198C32.4942 7.07498 31.3912 6.52269 30.5125 5.6938C29.6338 4.86491 29.0181 3.79599 28.742 2.61998L28.6958 2.42198L28.6752 2.31913Z" fill="#111827"/>
</g>
<defs>
<clipPath id="clip0_221_1747">
<rect width="36" height="36" fill="white"/>
</clipPath>
</defs>
</svg>
