<svg width="36" height="36" viewBox="0 0 36 36" fill="none" xmlns="http://www.w3.org/2000/svg">
<g clip-path="url(#clip0_221_1750)">
<path d="M3.85714 0C2.83416 0 1.85309 0.406376 1.12973 1.12973C0.406376 1.85309 0 2.83416 0 3.85714L0 32.1429C0 33.1658 0.406376 34.1469 1.12973 34.8703C1.85309 35.5936 2.83416 36 3.85714 36H32.1429C33.1658 36 34.1469 35.5936 34.8703 34.8703C35.5936 34.1469 36 33.1658 36 32.1429V3.85714C36 2.83416 35.5936 1.85309 34.8703 1.12973C34.1469 0.406376 33.1658 0 32.1429 0L3.85714 0Z" fill="#C0CCDE"/>
<path d="M0 32.1429V18H5.48229C4.98586 18.555 4.66069 19.2418 4.54602 19.9775C4.43134 20.7132 4.53207 21.4664 4.83604 22.1461C5.14001 22.8259 5.63423 23.4031 6.25904 23.8081C6.88385 24.2131 7.61254 24.4287 8.35714 24.4287C9.10175 24.4287 9.83043 24.2131 10.4552 23.8081C11.0801 23.4031 11.5743 22.8259 11.8782 22.1461C12.1822 21.4664 12.2829 20.7132 12.1683 19.9775C12.0536 19.2418 11.7284 18.555 11.232 18H18V11.232C17.445 11.7284 16.7582 12.0536 16.0225 12.1683C15.2868 12.2829 14.5336 12.1822 13.8539 11.8782C13.1741 11.5743 12.5969 11.0801 12.1919 10.4552C11.7869 9.83043 11.5713 9.10175 11.5713 8.35714C11.5713 7.61254 11.7869 6.88385 12.1919 6.25904C12.5969 5.63423 13.1741 5.14001 13.8539 4.83604C14.5336 4.53207 15.2868 4.43134 16.0225 4.54602C16.7582 4.66069 17.445 4.98586 18 5.48229V0H32.1429C33.1658 0 34.1469 0.406376 34.8703 1.12973C35.5936 1.85309 36 2.83416 36 3.85714V18H30.5177C31.0141 17.445 31.3393 16.7582 31.454 16.0225C31.5687 15.2868 31.4679 14.5336 31.164 13.8539C30.86 13.1741 30.3658 12.5969 29.741 12.1919C29.1161 11.7869 28.3875 11.5713 27.6429 11.5713C26.8983 11.5713 26.1696 11.7869 25.5448 12.1919C24.9199 12.5969 24.4257 13.1741 24.1218 13.8539C23.8178 14.5336 23.7171 15.2868 23.8317 16.0225C23.9464 16.7582 24.2716 17.445 24.768 18H18V24.768C18.555 24.2716 19.2418 23.9464 19.9775 23.8317C20.7132 23.7171 21.4664 23.8178 22.1461 24.1218C22.8259 24.4257 23.4031 24.9199 23.8081 25.5448C24.2131 26.1696 24.4287 26.8983 24.4287 27.6429C24.4287 28.3875 24.2131 29.1161 23.8081 29.741C23.4031 30.3658 22.8259 30.86 22.1461 31.164C21.4664 31.4679 20.7132 31.5687 19.9775 31.454C19.2418 31.3393 18.555 31.0141 18 30.5177V36H3.85714C2.83416 36 1.85309 35.5936 1.12973 34.8703C0.406376 34.1469 0 33.1658 0 32.1429Z" fill="#111827"/>
</g>
<defs>
<clipPath id="clip0_221_1750">
<rect width="36" height="36" fill="white"/>
</clipPath>
</defs>
</svg>
