<svg width="49" height="48" viewBox="0 0 49 48" fill="none" xmlns="http://www.w3.org/2000/svg">
<g clip-path="url(#clip0_221_1986)">
<path d="M24.2005 47.3687C11.315 47.3687 0.832031 36.8857 0.832031 24.0003C0.832031 11.1148 11.315 0.631836 24.2005 0.631836C37.0859 0.631836 47.5689 11.1148 47.5689 24.0003C47.5689 36.8857 37.0859 47.3687 24.2005 47.3687Z" fill="#FFB5D2"/>
<path d="M24.2002 1.26316C36.737 1.26316 46.937 11.4632 46.937 24C46.937 36.5368 36.737 46.7368 24.2002 46.7368C11.6634 46.7368 1.46335 36.5368 1.46335 24C1.46335 11.4632 11.6634 1.26316 24.2002 1.26316ZM24.2002 0C10.9459 0 0.200195 10.7457 0.200195 24C0.200195 37.2543 10.9459 48 24.2002 48C37.4545 48 48.2002 37.2543 48.2002 24C48.2002 10.7457 37.4545 0 24.2002 0Z" fill="#EA4C89"/>
<path d="M34.7501 45.365C34.7501 45.365 30.9203 18.7288 15.007 2.04883M0.540039 21.2817C0.540039 21.2817 31.1085 23.9558 41.0558 7.25809M8.79478 41.8762C8.79478 41.8762 19.6882 16.8568 48.0259 26.4732" stroke="#EA4C89" stroke-width="0.4" stroke-miterlimit="10"/>
</g>
<defs>
<clipPath id="clip0_221_1986">
<rect width="48" height="48" fill="white" transform="translate(0.200195)"/>
</clipPath>
</defs>
</svg>
