<svg width="49" height="48" viewBox="0 0 49 48" fill="none" xmlns="http://www.w3.org/2000/svg">
<path d="M24.666 24C24.666 21.8783 25.5089 19.8434 27.0092 18.3431C28.5095 16.8429 30.5443 16 32.666 16C34.7877 16 36.8226 16.8429 38.3229 18.3431C39.8232 19.8434 40.666 21.8783 40.666 24C40.666 26.1217 39.8232 28.1566 38.3229 29.6569C36.8226 31.1571 34.7877 32 32.666 32C30.5443 32 28.5095 31.1571 27.0092 29.6569C25.5089 28.1566 24.666 26.1217 24.666 24Z" fill="#1ABCFE"/>
<path d="M8.66602 40C8.66602 37.8783 9.50887 35.8434 11.0092 34.3431C12.5095 32.8429 14.5443 32 16.666 32H24.666V40C24.666 42.1217 23.8232 44.1566 22.3229 45.6569C20.8226 47.1571 18.7877 48 16.666 48C14.5443 48 12.5095 47.1571 11.0092 45.6569C9.50887 44.1566 8.66602 42.1217 8.66602 40Z" fill="#0ACF83"/>
<path d="M24.666 0V16H32.666C34.7877 16 36.8226 15.1571 38.3229 13.6569C39.8232 12.1566 40.666 10.1217 40.666 8C40.666 5.87827 39.8232 3.84344 38.3229 2.34315C36.8226 0.842855 34.7877 0 32.666 0L24.666 0Z" fill="#FF7262"/>
<path d="M8.66602 8C8.66602 10.1217 9.50887 12.1566 11.0092 13.6569C12.5095 15.1571 14.5443 16 16.666 16H24.666V0H16.666C14.5443 0 12.5095 0.842855 11.0092 2.34315C9.50887 3.84344 8.66602 5.87827 8.66602 8Z" fill="#F24E1E"/>
<path d="M8.66602 24C8.66602 26.1217 9.50887 28.1566 11.0092 29.6569C12.5095 31.1571 14.5443 32 16.666 32H24.666V16H16.666C14.5443 16 12.5095 16.8429 11.0092 18.3431C9.50887 19.8434 8.66602 21.8783 8.66602 24Z" fill="#A259FF"/>
</svg>
