<svg width="36" height="36" viewBox="0 0 36 36" fill="none" xmlns="http://www.w3.org/2000/svg">
<path d="M12.8571 3.85742C12.6575 3.85742 12.4607 3.90389 12.2822 3.99316C12.1036 4.08242 11.9483 4.21203 11.8286 4.37171L8.35714 9.00028H3.85714C2.83416 9.00028 1.85309 9.40666 1.12973 10.13C0.406376 10.8534 0 11.8344 0 12.8574L0 28.286C0 29.309 0.406376 30.2901 1.12973 31.0134C1.85309 31.7368 2.83416 32.1431 3.85714 32.1431H32.1429C33.1658 32.1431 34.1469 31.7368 34.8703 31.0134C35.5936 30.2901 36 29.309 36 28.286V12.8574C36 11.8344 35.5936 10.8534 34.8703 10.13C34.1469 9.40666 33.1658 9.00028 32.1429 9.00028H27.6429L24.1714 4.37171C24.0517 4.21203 23.8964 4.08242 23.7178 3.99316C23.5393 3.90389 23.3425 3.85742 23.1429 3.85742H12.8571Z" fill="#C0CCDE"/>
<path d="M17.9985 26.1591C19.6772 26.1591 21.2872 25.4923 22.4742 24.3053C23.6612 23.1182 24.3281 21.5083 24.3281 19.8296C24.3281 18.1509 23.6612 16.5409 22.4742 15.3539C21.2872 14.1669 19.6772 13.5 17.9985 13.5C16.3198 13.5 14.7099 14.1669 13.5228 15.3539C12.3358 16.5409 11.6689 18.1509 11.6689 19.8296C11.6689 21.5083 12.3358 23.1182 13.5228 24.3053C14.7099 25.4923 16.3198 26.1591 17.9985 26.1591Z" fill="#111827"/>
</svg>
