<svg width="36" height="36" viewBox="0 0 36 36" fill="none" xmlns="http://www.w3.org/2000/svg">
<path d="M1.2519 12.7081L0.0413716 23.6029C-0.132694 25.1574 0.246023 26.7236 1.11112 28.0268C1.97622 29.3301 3.27248 30.2872 4.77263 30.7304C6.27278 31.1736 7.88106 31.0745 9.3155 30.4506C10.7499 29.8267 11.919 28.7178 12.6176 27.3182L13.6664 25.2208H22.3336L23.3824 27.3182C24.081 28.7178 25.2501 29.8267 26.6845 30.4506C28.1189 31.0745 29.7272 31.1736 31.2274 30.7304C32.7275 30.2872 34.0238 29.3301 34.8889 28.0268C35.754 26.7236 36.1327 25.1574 35.9586 23.6029L34.7452 12.7081C34.5099 10.5888 33.5017 8.63062 31.9134 7.20803C30.325 5.78543 28.268 4.99827 26.1357 4.99707H9.87008C7.7368 4.99685 5.67836 5.78337 4.08879 7.2061C2.49921 8.62883 1.49016 10.5878 1.25479 12.7081H1.2519Z" fill="#C0CCDE"/>
<path fill-rule="evenodd" clip-rule="evenodd" d="M12.2222 12.2197C12.2222 11.7409 12.032 11.2816 11.6933 10.9429C11.3547 10.6043 10.8954 10.4141 10.4165 10.4141C9.93762 10.4141 9.47834 10.6043 9.13971 10.9429C8.80108 11.2816 8.61083 11.7409 8.61083 12.2197V13.7856H7.04494C6.56605 13.7856 6.10676 13.9759 5.76813 14.3145C5.4295 14.6531 5.23926 15.1124 5.23926 15.5913C5.23926 16.0702 5.4295 16.5295 5.76813 16.8681C6.10676 17.2068 6.56605 17.397 7.04494 17.397H8.61083V18.96C8.61083 19.4389 8.80108 19.8982 9.13971 20.2368C9.47834 20.5755 9.93762 20.7657 10.4165 20.7657C10.8954 20.7657 11.3547 20.5755 11.6933 20.2368C12.032 19.8982 12.2222 19.4389 12.2222 18.96V17.397H13.7881C14.267 17.397 14.7263 17.2068 15.0649 16.8681C15.4035 16.5295 15.5938 16.0702 15.5938 15.5913C15.5938 15.1124 15.4035 14.6531 15.0649 14.3145C14.7263 13.9759 14.267 13.7856 13.7881 13.7856H12.2222V12.2197ZM24.5471 19.2027C25.026 19.2027 25.4853 19.0125 25.8239 18.6738C26.1625 18.3352 26.3528 17.8759 26.3528 17.397C26.3528 16.9181 26.1625 16.4588 25.8239 16.1202C25.4853 15.7816 25.026 15.5913 24.5471 15.5913C24.0682 15.5913 23.6089 15.7816 23.2703 16.1202C22.9317 16.4588 22.7414 16.9181 22.7414 17.397C22.7414 17.8759 22.9317 18.3352 23.2703 18.6738C23.6089 19.0125 24.0682 19.2027 24.5471 19.2027ZM29.9642 12.9189C29.9642 13.3978 29.7739 13.8571 29.4353 14.1957C29.0966 14.5344 28.6374 14.7246 28.1585 14.7246C27.6796 14.7246 27.2203 14.5344 26.8817 14.1957C26.543 13.8571 26.3528 13.3978 26.3528 12.9189C26.3528 12.44 26.543 11.9807 26.8817 11.6421C27.2203 11.3035 27.6796 11.1132 28.1585 11.1132C28.6374 11.1132 29.0966 11.3035 29.4353 11.6421C29.7739 11.9807 29.9642 12.44 29.9642 12.9189Z" fill="#111827"/>
</svg>
