<svg width="48" height="48" viewBox="0 0 48 48" fill="none" xmlns="http://www.w3.org/2000/svg">
<g clip-path="url(#clip0_221_1892)">
<path fill-rule="evenodd" clip-rule="evenodd" d="M10.3438 24.0002C10.3438 22.4413 10.6028 20.9467 11.0649 19.5449L2.97631 13.3682C1.39989 16.5689 0.511719 20.1754 0.511719 24.0002C0.511719 27.8216 1.3988 31.426 2.97303 34.6245L11.0572 28.4358C10.5995 27.0405 10.3438 25.5514 10.3438 24.0002Z" fill="#FBBC05"/>
<path fill-rule="evenodd" clip-rule="evenodd" d="M24.5461 9.81818C27.9327 9.81818 30.9916 11.0182 33.395 12.9818L40.3867 6C36.1261 2.29091 30.6638 0 24.5461 0C15.0482 0 6.88538 5.43164 2.97656 13.368L11.0651 19.5447C12.9289 13.8873 18.2415 9.81818 24.5461 9.81818Z" fill="#EB4335"/>
<path fill-rule="evenodd" clip-rule="evenodd" d="M24.5461 38.1816C18.2415 38.1816 12.9289 34.1125 11.0651 28.4551L2.97656 34.6307C6.88538 42.5682 15.0482 47.9998 24.5461 47.9998C30.4082 47.9998 36.0049 45.9184 40.2054 42.0184L32.5276 36.0827C30.3612 37.4474 27.6334 38.1816 24.5461 38.1816Z" fill="#34A853"/>
<path fill-rule="evenodd" clip-rule="evenodd" d="M47.4875 24.0004C47.4875 22.5822 47.269 21.0549 46.9413 19.6367H24.5459V28.9094H37.4369C36.7924 32.0709 35.0379 34.5014 32.5274 36.0833L40.2052 42.0189C44.6176 37.9236 47.4875 31.8233 47.4875 24.0004Z" fill="#4285F4"/>
</g>
<defs>
<clipPath id="clip0_221_1892">
<rect width="48" height="48" fill="white"/>
</clipPath>
</defs>
</svg>
