<svg width="48" height="48" viewBox="0 0 48 48" fill="none" xmlns="http://www.w3.org/2000/svg">
<g clip-path="url(#clip0_221_1934)">
<path d="M8.5 0H39.5C44.2 0 48 3.89744 48 8.71795V39.2821C48 44.1026 44.2 48 39.5 48H8.5C3.8 48 0 44.1026 0 39.2821V8.71795C0 3.89744 3.8 0 8.5 0Z" fill="#330000"/>
<path d="M23.2599 28.7999H15.8199L14.2999 33.6204C14.2599 33.8051 14.0999 33.9281 13.9199 33.9076H10.1599C9.93988 33.9076 9.87988 33.7845 9.93988 33.5384L16.3799 14.523C16.4399 14.3179 16.4999 14.0922 16.5799 13.8461C16.6599 13.4153 16.6999 12.964 16.6999 12.5128C16.6799 12.4102 16.7599 12.3076 16.8599 12.2871C16.8799 12.2871 16.8999 12.2871 16.9199 12.2871H22.0399C22.1999 12.2871 22.2799 12.3486 22.2999 12.4512L29.5999 33.5794C29.6599 33.8051 29.5999 33.9076 29.3999 33.9076H25.2199C25.0799 33.9281 24.9399 33.8256 24.8999 33.682L23.2599 28.7999ZM16.9799 24.6358H22.0599C21.9399 24.2051 21.7799 23.6922 21.5999 23.1589C21.4199 22.6051 21.2399 22.0102 21.0599 21.3948C20.8599 20.7589 20.6799 20.1435 20.4799 19.5076C20.2799 18.8717 20.0999 18.2769 19.9399 17.682C19.7799 17.1076 19.6399 16.5743 19.4999 16.082H19.4599C19.2799 16.964 19.0599 17.8461 18.7799 18.7281C18.4799 19.7128 18.1799 20.7384 17.8599 21.764C17.5799 22.8102 17.2799 23.7743 16.9799 24.6358Z" fill="#FF9A00"/>
<path d="M33.9592 15.7952C33.2992 15.8157 32.6592 15.549 32.1792 15.0773C31.7192 14.5644 31.4792 13.8875 31.4992 13.1901C31.4792 12.4926 31.7392 11.8362 32.2192 11.3644C32.6992 10.8926 33.3392 10.6465 33.9992 10.6465C34.7792 10.6465 35.3792 10.8926 35.8192 11.3644C36.2592 11.8567 36.4992 12.5132 36.4792 13.1901C36.4992 13.8875 36.2592 14.5644 35.7792 15.0773C35.3192 15.5696 34.6392 15.8362 33.9592 15.7952ZM31.7192 33.6003V17.8055C31.7192 17.6003 31.7992 17.5183 31.9792 17.5183H35.9392C36.1192 17.5183 36.1992 17.6208 36.1992 17.8055V33.6003C36.1992 33.826 36.1192 33.9285 35.9392 33.9285H32.0192C31.8192 33.9285 31.7192 33.8055 31.7192 33.6003Z" fill="#FF9A00"/>
</g>
<defs>
<clipPath id="clip0_221_1934">
<rect width="48" height="48" fill="white"/>
</clipPath>
</defs>
</svg>
