<svg width="48" height="48" viewBox="0 0 48 48" fill="none" xmlns="http://www.w3.org/2000/svg">
<g clip-path="url(#clip0_221_1935)">
<path d="M31.684 25.139C31.7524 25.4788 31.7859 25.8871 31.7859 26.2273V28.7093C31.7859 29.1515 31.7524 29.5594 31.65 29.9335C31.2422 31.7359 29.746 32.8917 28.0458 32.8917C25.3938 32.8917 23.8975 30.6816 23.8975 27.6554C23.8975 24.5609 25.3938 22.1808 28.0797 22.1808C29.9839 22.1808 31.31 23.507 31.684 25.139ZM47.9999 8.00002V40C47.9999 44.4 44.3999 48 39.9999 48H8.00001C3.59999 47.9999 0 44.3999 0 39.9999V8.00002C0 3.59999 3.59999 0 8.00001 0H40C44.3999 0 47.9999 3.59999 47.9999 8.00002ZM16.0777 12.9662H11.8955V35.8839H16.0777V12.9662ZM36.1046 35.8839C36.0362 34.7617 35.9683 32.9258 35.9683 31.2258V11.7419H31.7859V21.1267H31.7179C30.9703 19.9027 29.3378 18.9506 27.0597 18.9506C23.0814 18.9506 19.6131 22.2488 19.647 27.7914C19.647 32.8918 22.7752 36.2578 26.7194 36.2578C29.1334 36.2578 31.1397 35.1019 32.126 33.2656H32.194L32.364 35.8839H36.1046Z" fill="#6F2B41"/>
</g>
<defs>
<clipPath id="clip0_221_1935">
<rect width="48" height="48" fill="white"/>
</clipPath>
</defs>
</svg>
