<svg xmlns="http://www.w3.org/2000/svg" xmlns:xlink="http://www.w3.org/1999/xlink" fill="none" version="1.1" width="36" height="36" viewBox="0 0 36 36"><defs><clipPath id="master_svg0_0_14270"><rect x="0" y="0" width="36" height="36" rx="0"/></clipPath></defs><g clip-path="url(#master_svg0_0_14270)"><g><path d="M26.44994482269287,26.45C26.44994482269287,26.45,22.89394482269287,26.45,22.89394482269287,26.45C22.89394482269287,26.45,22.89394482269287,20.880000000000003,22.89394482269287,20.880000000000003C22.89394482269287,19.552,22.869944822692872,17.842,21.043944822692872,17.842C19.19204482269287,17.842,18.908044822692872,19.29,18.908044822692872,20.782C18.908044822692872,20.782,18.908044822692872,26.45,18.908044822692872,26.45C18.908044822692872,26.45,15.352004822692871,26.45,15.352004822692871,26.45C15.352004822692871,26.45,15.352004822692871,14.996,15.352004822692871,14.996C15.352004822692871,14.996,18.76604482269287,14.996,18.76604482269287,14.996C18.76604482269287,14.996,18.76604482269287,16.561999999999998,18.76604482269287,16.561999999999998C18.76604482269287,16.561999999999998,18.81404482269287,16.561999999999998,18.81404482269287,16.561999999999998C19.509944822692873,15.374,20.805944822692872,14.662,22.18194482269287,14.712C25.785944822692873,14.712,26.45194482269287,17.082,26.45194482269287,20.168C26.45194482269287,20.168,26.44994482269287,26.448,26.44994482269287,26.448C26.44994482269287,26.448,26.44994482269287,26.45,26.44994482269287,26.45C26.44994482269287,26.45,26.44994482269287,26.45,26.44994482269287,26.45ZM11.340024822692872,13.43C10.793774822692871,13.42738,10.27061482269287,13.20935,9.88416482269287,12.82328C9.49771482269287,12.4372,9.279184822692871,11.914259999999999,9.276034822692871,11.36801C9.276034822692871,10.23601,10.20802482269287,9.30402,11.340024822692872,9.30402C12.472024822692871,9.30402,13.402014822692871,10.23601,13.404014822692872,11.36801C13.404014822692872,12.50001,12.472024822692871,13.43,11.340024822692872,13.43C11.340024822692872,13.43,11.340024822692872,13.43,11.340024822692872,13.43ZM13.11801482269287,26.45C13.11801482269287,26.45,9.558034822692871,26.45,9.558034822692871,26.45C9.558034822692871,26.45,9.558034822692871,14.996,9.558034822692871,14.996C9.558034822692871,14.996,13.11801482269287,14.996,13.11801482269287,14.996C13.11801482269287,14.996,13.11801482269287,26.45,13.11801482269287,26.45C13.11801482269287,26.45,13.11801482269287,26.45,13.11801482269287,26.45ZM28.21994482269287,6.0000297264C28.21994482269287,6.0000297264,7.770034822692871,6.0000297264,7.770034822692871,6.0000297264C7.306344822692871,5.99733648,6.860315822692871,6.177748,6.528888822692871,6.50206C6.197461822692871,6.826372,6.007414122692871,7.2683800000000005,6.000044822692871,7.73202C6.000044822692871,7.73202,6.000044822692871,28.268,6.000044822692871,28.268C6.007414122692871,28.7316,6.197461822692871,29.1736,6.528888822692871,29.4979C6.860315822692871,29.8222,7.306344822692871,30.0026,7.770034822692871,29.9999C7.770034822692871,29.9999,28.221944822692873,29.9999,28.221944822692873,29.9999C28.68674482269287,30.0037,29.13424482269287,29.8239,29.46714482269287,29.4996C29.800044822692872,29.1753,29.99154482269287,28.7327,29.99994482269287,28.268C29.99994482269287,28.268,29.99994482269287,7.73002,29.99994482269287,7.73002C29.99154482269287,7.26568,29.799944822692872,6.823484,29.46684482269287,6.499805C29.133844822692872,6.176127,28.68634482269287,5.9972035,28.221944822692873,6.00202957C28.221944822692873,6.00202957,28.21994482269287,6.0000297264,28.21994482269287,6.0000297264C28.21994482269287,6.0000297264,28.21994482269287,6.0000297264,28.21994482269287,6.0000297264Z" fill="#0A66C2" fill-opacity="1"/></g></g></svg>