<svg width="48" height="48" viewBox="0 0 48 48" fill="none" xmlns="http://www.w3.org/2000/svg">
            <path fill-rule="evenodd" clip-rule="evenodd" d="M47.2941 24C47.2941 36.865 36.865 47.2941 24 47.2941C11.135 47.2941 0.705882 36.865 0.705882 24C0.705882 11.135 11.135 0.705882 24 0.705882C36.865 0.705882 47.2941 11.135 47.2941 24ZM48 24C48 37.2548 37.2548 48 24 48C10.7452 48 0 37.2548 0 24C0 10.7452 10.7452 0 24 0C37.2548 0 48 10.7452 48 24ZM24 45.1764C35.6955 45.1764 45.1765 35.6954 45.1765 24C45.1765 12.3045 35.6955 2.8235 24 2.8235C12.3046 2.8235 2.82354 12.3045 2.82354 24C2.82354 35.6954 12.3046 45.1764 24 45.1764ZM24 45.8823C36.0853 45.8823 45.8824 36.0853 45.8824 24C45.8824 11.9147 36.0853 2.11761 24 2.11761C11.9147 2.11761 2.11766 11.9147 2.11766 24C2.11766 36.0853 11.9147 45.8823 24 45.8823ZM12.614 34.2664C10.7392 34.2664 8.93214 33.6791 7.8479 32.9563L7.96084 29.5681H8.90955L9.50928 32.7602C10.4516 33.2802 11.292 33.4533 12.4785 33.4533C14.918 33.4533 16.5444 32.3238 16.5444 30.1554C16.5444 28.529 15.7538 27.6481 13.2917 26.6316L12.343 26.225C9.65496 25.0956 8.2319 23.6725 8.2319 21.3685C8.2319 18.545 10.5811 17.0768 13.495 17.0768C15.2343 17.0768 16.454 17.5285 17.5834 18.2965L17.4705 21.5041H16.4992L15.922 18.4644C15.2024 18.0517 14.513 17.89 13.6079 17.89C11.5072 17.89 9.97119 18.9064 9.97119 20.8942C9.97119 22.5883 11.0554 23.537 12.8173 24.2598L13.8564 24.689C17.2672 26.1121 18.3288 27.377 18.3288 29.681C18.3288 32.5045 16.0474 34.2664 12.614 34.2664ZM20.2491 33.8824V33.2048L22.5105 32.9603L22.5507 18.3323L20.2943 18.1384V17.4382H22.5531H22.7564H23.2533H23.3889H24.6086L30.2068 31.2817L35.722 17.4382H35.9253H36.603H36.8063H37.8679H40.1493V18.1384L37.8468 18.3233C37.8002 20.5448 37.8002 22.7974 37.8002 25.05V25.0504V26.2928V26.2932C37.8002 28.5449 37.8002 30.7965 37.8467 33.0016L40.2171 33.2048V33.8824H37.8679H35.7672H33.5084V33.2048L35.7875 33.0037C35.814 31.632 35.8183 30.2622 35.8224 28.935C35.8249 28.1178 35.8274 27.3167 35.835 26.5413L35.9083 19.1546L30.0524 33.8824H29.307L23.2886 19.1543L23.4115 25.1408V32.9551L25.7832 33.2048V33.8824H23.4115H22.5079H20.2491Z" fill="#374151"/>
            </svg>