<svg width="48" height="48" viewBox="0 0 48 48" fill="none" xmlns="http://www.w3.org/2000/svg">
<path fill-rule="evenodd" clip-rule="evenodd" d="M47.2941 24C47.2941 36.865 36.865 47.2941 24 47.2941C11.135 47.2941 0.705882 36.865 0.705882 24C0.705882 11.135 11.135 0.705882 24 0.705882C36.865 0.705882 47.2941 11.135 47.2941 24ZM48 24C48 37.2548 37.2548 48 24 48C10.7452 48 0 37.2548 0 24C0 10.7452 10.7452 0 24 0C37.2548 0 48 10.7452 48 24ZM24.0002 45.176C35.6956 45.176 45.1767 35.695 45.1767 23.9995C45.1767 12.3041 35.6956 2.82307 24.0002 2.82307C12.3048 2.82307 2.82372 12.3041 2.82372 23.9995C2.82372 35.695 12.3048 45.176 24.0002 45.176ZM24.0002 45.8819C36.0855 45.8819 45.8825 36.0848 45.8825 23.9995C45.8825 11.9143 36.0855 2.11719 24.0002 2.11719C11.9149 2.11719 2.11784 11.9143 2.11784 23.9995C2.11784 36.0848 11.9149 45.8819 24.0002 45.8819ZM12.6138 34.2665C10.739 34.2665 8.93189 33.6792 7.84766 32.9564L7.9606 29.5681H8.9093L9.50903 32.7602C10.4514 33.2802 11.2917 33.4533 12.4782 33.4533C14.9178 33.4533 16.5441 32.3239 16.5441 30.1554C16.5441 28.5291 15.7535 27.6481 13.2914 26.6316L12.3427 26.2251C9.65471 25.0956 8.23166 23.6726 8.23166 21.3686C8.23166 18.5451 10.5808 17.0768 13.4947 17.0768C15.234 17.0768 16.4538 17.5286 17.5832 18.2966L17.4702 21.5041H16.4989L15.9218 18.4645C15.2022 18.0517 14.5127 17.89 13.6077 17.89C11.507 17.89 9.97095 18.9065 9.97095 20.8942C9.97095 22.5884 11.0552 23.5371 12.8171 24.2599L13.8561 24.6891C17.267 26.1121 18.3286 27.3771 18.3286 29.6811C18.3286 32.5046 16.0472 34.2665 12.6138 34.2665ZM20.2489 33.8825V33.2048L22.5102 32.9604L22.5504 18.3324L20.294 18.1385V17.4382H22.5529H22.7562H23.2531H23.3886H24.6084L30.2065 31.2817L35.7218 17.4382H35.9251H36.6027H36.806H37.8677H40.1491V18.1385L37.8465 18.3233C37.7999 20.545 37.7999 22.7977 37.7999 25.0505V26.2928C37.7999 28.5446 37.7999 30.7964 37.8464 33.0016L40.2169 33.2048V33.8825H37.8677H35.767H33.5082V33.2048L35.7872 33.0037C35.8138 31.632 35.818 30.2623 35.8221 28.935C35.8247 28.1178 35.8271 27.3168 35.8347 26.5413L35.9081 19.1546L30.0522 33.8825H29.3067L23.2883 19.1543L23.4112 25.1408V32.9552L25.783 33.2048V33.8825H23.4112H22.5077H20.2489Z" fill="#FEFFFF"/>
</svg>
