<svg width="49" height="48" viewBox="0 0 49 48" fill="none" xmlns="http://www.w3.org/2000/svg">
<g clip-path="url(#clip0_221_1985)">
<path d="M13.9381 10.3701C21.4147 10.3701 27.4753 16.473 27.4753 24.0007C27.4753 31.5284 21.4143 37.6308 13.9381 37.6308C6.46185 37.6308 0.400391 31.5284 0.400391 24.0007C0.400391 16.473 6.46139 10.3701 13.9381 10.3701ZM35.5568 11.1686C39.2951 11.1686 42.3256 16.9131 42.3256 24.0007H42.3261C42.3261 31.0864 39.2956 36.8328 35.5572 36.8328C31.8189 36.8328 28.7884 31.0864 28.7884 24.0007C28.7884 16.915 31.8184 11.1686 35.5568 11.1686ZM46.0198 12.5051C47.3343 12.5051 48.4004 17.6518 48.4004 24.0007C48.4004 30.3478 47.3347 35.4963 46.0198 35.4963C44.7048 35.4963 43.6396 30.3492 43.6396 24.0007C43.6396 17.6522 44.7053 12.5051 46.0198 12.5051Z" fill="black"/>
</g>
<defs>
<clipPath id="clip0_221_1985">
<rect width="48" height="48" fill="white" transform="translate(0.400391)"/>
</clipPath>
</defs>
</svg>
