<svg width="36" height="36" viewBox="0 0 36 36" fill="none" xmlns="http://www.w3.org/2000/svg">
<g clip-path="url(#clip0_221_1759)">
<path fill-rule="evenodd" clip-rule="evenodd" d="M33.319 0.0599097C32.8311 -0.0350554 32.328 -0.0169256 31.8483 0.112906H31.8324L11.6063 5.72789C10.9207 5.91433 10.315 6.32021 9.88196 6.88344C9.44889 7.44668 9.21222 8.13627 9.20817 8.84674V23.4049C7.911 22.8481 6.4689 22.7244 5.09584 23.052C3.72278 23.3796 2.49193 24.1412 1.58593 25.2237C0.679932 26.3062 0.147064 27.652 0.0663944 29.0613C-0.0142751 30.4706 0.361553 31.8684 1.13811 33.0472C1.91467 34.226 3.05058 35.123 4.37728 35.6052C5.70399 36.0874 7.1508 36.129 8.50303 35.7239C9.85525 35.3188 11.0408 34.4885 11.8839 33.3562C12.7269 32.224 13.1824 30.8502 13.1829 29.4385V29.4121V29.3988V15.5508L31.9702 10.3306V16.8598C30.6799 16.3066 29.2463 16.1817 27.8798 16.5034C26.5133 16.8251 25.286 17.5764 24.378 18.647C23.47 19.7177 22.9292 21.0513 22.835 22.4519C22.7408 23.8526 23.0981 25.2466 23.8546 26.4292C24.6111 27.6118 25.7268 28.5207 27.0379 29.0224C28.349 29.5242 29.7864 29.5924 31.1391 29.2169C32.4918 28.8415 33.6885 28.0423 34.5535 26.9366C35.4185 25.8309 35.9062 24.477 35.9449 23.0737V22.9014V22.8908V22.8776V7.71791V3.24765V3.24235V3.16816C35.9262 2.4293 35.656 1.71894 35.1791 1.15432C34.7021 0.589704 34.0469 0.204593 33.3216 0.0625595L33.319 0.0599097Z" fill="#C0CCDE"/>
</g>
<defs>
<clipPath id="clip0_221_1759">
<rect width="36" height="36" fill="white"/>
</clipPath>
</defs>
</svg>
