<svg width="49" height="48" viewBox="0 0 49 48" fill="none" xmlns="http://www.w3.org/2000/svg">
<g clip-path="url(#clip0_221_1984)">
<path d="M8.28143 24.2449V22.7593C8.28143 20.228 8.28143 17.6967 8.27165 15.1557C8.27165 14.882 8.34984 14.8332 8.60394 14.8429C9.33694 14.8625 10.0699 14.8527 10.8127 14.8429C10.9886 14.8429 11.0668 14.8625 11.0668 15.0775C11.057 20.2476 11.057 25.4079 11.0668 30.578C11.0668 30.793 10.9886 30.8223 10.8127 30.8223C10.0211 30.8125 9.21966 30.8125 8.42803 30.8223C8.25211 30.8418 8.08596 30.7441 8.02732 30.5682C6.91316 28.1151 5.78923 25.662 4.67508 23.2089C4.30369 22.3977 3.94208 21.5865 3.56092 20.7753C3.5316 20.7167 3.5316 20.619 3.43387 20.5896C3.37523 20.6581 3.41432 20.746 3.41432 20.8144C3.41432 24.0396 3.41432 27.2746 3.41432 30.4998C3.41432 30.7539 3.36545 30.8321 3.0918 30.8321C2.34903 30.8125 1.60626 30.8223 0.853715 30.8321C0.668022 30.8321 0.599609 30.793 0.599609 30.5877C0.609383 25.4177 0.609383 20.2573 0.599609 15.0873C0.599609 14.9016 0.648476 14.8527 0.834169 14.8527C1.8115 14.8625 2.77906 14.8625 3.75639 14.8527C3.95185 14.8527 4.01049 14.9504 4.06913 15.0873C4.94873 17.0517 5.8381 19.0064 6.72747 20.9708C7.19659 22.0165 7.67548 23.0721 8.1446 24.1178C8.16415 24.1667 8.20324 24.2155 8.22279 24.2644L8.28143 24.2449Z" fill="#020202"/>
<path d="M19.0998 20.4918V20.8925C19.0998 24.0883 19.0998 27.294 19.1096 30.4899C19.1096 30.7537 19.051 30.8221 18.7871 30.8124C18.0736 30.7928 17.3602 30.7928 16.6467 30.8124C16.3829 30.8221 16.3242 30.7537 16.3242 30.4899C16.334 26.0919 16.334 21.6841 16.334 17.2861C16.334 16.5531 16.3438 15.8103 16.334 15.0773C16.334 14.9014 16.3731 14.833 16.5588 14.8428C17.5361 14.8526 18.5037 14.8526 19.481 14.8428C19.6471 14.8428 19.7058 14.9014 19.7742 15.048C20.2726 16.1817 20.7906 17.3057 21.3086 18.4296C21.9927 19.9542 22.6769 21.4789 23.361 23.0035C23.5467 23.4238 23.7519 23.8342 23.9963 24.2349V23.932C23.9963 21.0097 23.9963 18.0875 23.9865 15.1653C23.9865 14.8917 24.0647 14.8232 24.3286 14.8232C25.0616 14.8428 25.8043 14.833 26.5373 14.8232C26.7132 14.8232 26.7914 14.8526 26.7914 15.0578C26.7817 20.2279 26.7817 25.3882 26.7914 30.5583C26.7914 30.744 26.7328 30.7928 26.5569 30.7928C25.7261 30.783 24.8856 30.7928 24.0549 30.7928C23.9279 30.7928 23.8497 30.7831 23.7813 30.6365C22.8039 28.4863 21.8168 26.346 20.8395 24.2056C20.2922 23.0133 19.7546 21.8014 19.2171 20.609C19.178 20.5699 19.1389 20.5309 19.0998 20.4918Z" fill="#CB0101"/>
<path d="M41.08 26.4921C40.6109 26.3357 40.1808 26.0914 39.7997 25.7786C38.4216 24.5961 38.236 22.5046 39.3697 21.0484C40.132 20.071 41.1777 19.6703 42.3798 19.5824C43.064 19.5335 43.7579 19.6215 44.4029 19.856C44.8427 20.0222 45.2923 20.1394 45.7614 20.1883C46.3576 20.2372 46.9146 20.1492 47.4131 19.8169C47.5401 19.729 47.6281 19.7387 47.7356 19.856C47.9799 20.1199 48.2243 20.374 48.4979 20.6183C48.6738 20.7747 48.5956 20.8431 48.449 20.9409C47.7454 21.4002 46.9831 21.5859 46.1621 21.3807C46.1132 21.4002 46.1426 21.4393 46.1523 21.4491C47.5108 23.1887 46.3771 26.668 43.2985 26.7169C42.5167 26.7267 41.8325 27.1176 41.2364 27.616C40.8943 27.8995 41.0116 28.2904 41.4318 28.437C41.598 28.4859 41.7641 28.5054 41.9303 28.5054C42.9076 28.5152 43.8947 28.437 44.872 28.5836C46.1132 28.7693 47.0906 29.3752 47.4326 30.636C47.8236 32.0922 47.4229 34.0273 45.2336 34.6528C43.5429 35.1415 41.7348 35.0633 40.0929 34.428C38.666 33.8807 38.0991 32.6297 38.5585 31.1735C38.5976 31.0465 38.6367 30.9487 38.8126 30.9292C39.3501 30.8999 39.8779 30.8412 40.4349 30.7923C40.3665 30.9683 40.2981 31.1149 40.2493 31.2712C40.0147 31.9163 40.1808 32.8936 41.1386 33.2455C42.2235 33.6364 43.3376 33.7243 44.442 33.392C45.4975 33.0695 45.9862 31.9358 45.5464 30.9194C45.3314 30.4112 44.9209 30.1766 44.4029 30.0691C43.6699 29.9128 42.9271 29.9518 42.1746 29.9518C41.6175 29.9518 41.0604 30.0105 40.5131 29.8932C39.741 29.7368 39.2524 29.2873 39.1644 28.6129C39.0765 27.9385 39.2817 27.401 39.8681 27.0296C40.2395 26.7951 40.6597 26.6094 41.08 26.4921ZM44.6961 23.2376C44.6766 22.9835 44.6668 22.788 44.6472 22.5925C44.5495 21.8693 44.2172 21.3416 43.4744 21.1461C42.9565 21.0093 42.3994 21.019 41.8814 21.1559C41.5784 21.2341 41.3048 21.3904 41.0995 21.625C40.4643 22.358 40.4154 23.9608 41.0018 24.7329C41.4709 25.3388 42.1355 25.4464 42.8489 25.4268C43.8458 25.4073 44.442 24.899 44.6277 23.9217C44.6668 23.6774 44.6766 23.4233 44.6961 23.2376Z" fill="#040404"/>
<path d="M29.958 34.7898C30.0753 34.4086 30.1926 34.0372 30.3196 33.6561L34.356 21.3026C35.2454 18.5759 36.1347 15.8393 37.0339 13.1028C37.1903 12.6141 37.6887 12.4773 37.9917 12.8194C38.148 13.0051 38.148 13.2103 38.0796 13.4351C37.4541 15.3507 36.8286 17.2565 36.2031 19.172C34.4928 24.4105 32.7825 29.649 31.0819 34.8875C31.0038 35.1221 30.8865 35.3078 30.6324 35.3566C30.4369 35.4055 30.2219 35.3273 30.0948 35.1709C30.0069 35.0732 29.958 34.9266 29.958 34.7898Z" fill="#060606"/>
</g>
<defs>
<clipPath id="clip0_221_1984">
<rect width="48" height="48" fill="white" transform="translate(0.599609)"/>
</clipPath>
</defs>
</svg>
