<svg width="49" height="48" viewBox="0 0 49 48" fill="none" xmlns="http://www.w3.org/2000/svg">
<g clip-path="url(#clip0_221_1987)">
<path d="M24.7998 48C38.0546 48 48.7998 37.2548 48.7998 24C48.7998 10.7452 38.0546 0 24.7998 0C11.545 0 0.799805 10.7452 0.799805 24C0.799805 37.2548 11.545 48 24.7998 48Z" fill="#E60023"/>
<path d="M25.3331 8.89941C14.9743 8.89941 9.47461 15.853 9.47461 23.4231C9.47461 26.9437 11.3484 31.3256 14.3466 32.7212C14.8007 32.9327 15.0445 32.8413 15.1488 32.4009C15.229 32.0668 15.6333 30.4366 15.8152 29.6788C15.8733 29.437 15.8448 29.2292 15.6491 28.9911C14.6567 27.7874 13.8629 25.5757 13.8629 23.5136C13.8629 18.2197 17.8709 13.0976 24.6989 13.0976C30.5946 13.0976 34.7226 17.1157 34.7226 22.8619C34.7226 29.3538 31.4438 33.852 27.1783 33.852C24.8226 33.852 23.0586 31.9034 23.6244 29.5136C24.3029 26.6612 25.6127 23.5837 25.6127 21.5234C25.6127 19.681 24.625 18.1431 22.5768 18.1431C20.1684 18.1431 18.2346 20.6335 18.2346 23.9714C18.2346 26.0954 18.9527 27.5335 18.9527 27.5335C18.9527 27.5335 16.574 37.5914 16.1383 39.4634C15.6559 41.5301 15.8439 44.4333 16.0526 46.3314C16.594 46.5437 17.1355 46.756 17.6952 46.9292C18.6754 45.3358 20.1371 42.7224 20.6789 40.6385C20.9715 39.5151 22.1752 34.9329 22.1752 34.9329C22.957 36.4256 25.2426 37.6892 27.6749 37.6892C34.9127 37.6892 40.129 31.0329 40.129 22.7612C40.129 14.8311 33.6592 8.89941 25.3331 8.89941Z" fill="white"/>
</g>
<defs>
<clipPath id="clip0_221_1987">
<rect width="48" height="48" fill="white" transform="translate(0.799805)"/>
</clipPath>
</defs>
</svg>
