<svg width="36" height="36" viewBox="0 0 36 36" fill="none" xmlns="http://www.w3.org/2000/svg">
<path fill-rule="evenodd" clip-rule="evenodd" d="M16.3929 3.99636C15.4593 2.89968 14.1987 2.13127 12.7962 1.80402C11.3937 1.47678 9.92319 1.60794 8.60073 2.17825C7.27826 2.74855 6.17355 3.72794 5.44888 4.97253C4.7242 6.21711 4.41776 7.6613 4.57457 9.09293C1.87714 10.5586 0 14.2821 0 18.1135C0 20.9241 1.01057 24.2952 2.61514 26.0181C2.47549 27.6756 2.87587 29.3338 3.75648 30.745C4.63708 32.1562 5.95064 33.2445 7.5009 33.8475C9.05116 34.4505 10.7549 34.5357 12.3576 34.0904C13.9603 33.6451 15.3759 32.6932 16.3929 31.3769V3.99636Z" fill="#C0CCDE"/>
<path fill-rule="evenodd" clip-rule="evenodd" d="M19.6074 31.3769C20.6244 32.6932 22.04 33.6451 23.6427 34.0904C25.2454 34.5357 26.9491 34.4505 28.4994 33.8475C30.0496 33.2445 31.3632 32.1562 32.2438 30.745C33.1244 29.3338 33.5248 27.6756 33.3851 26.0181C34.9871 24.2952 36.0003 20.9266 36.0003 18.1135C36.0003 14.2821 34.1231 10.5561 31.4257 9.09293C31.5825 7.6613 31.2761 6.21711 30.5514 4.97253C29.8267 3.72794 28.722 2.74855 27.3996 2.17825C26.0771 1.60794 24.6066 1.47678 23.2041 1.80402C21.8015 2.13127 20.5409 2.89968 19.6074 3.99636V31.3769Z" fill="#C0CCDE"/>
<path fill-rule="evenodd" clip-rule="evenodd" d="M19.6074 16.3497C20.2657 16.828 20.9651 17.2188 21.644 17.5068C22.0372 17.6726 22.4801 17.6753 22.8752 17.5145C23.2704 17.3537 23.5856 17.0424 23.7513 16.6493C23.917 16.2561 23.9198 15.8132 23.7589 15.418C23.5981 15.0228 23.2869 14.7077 22.8937 14.542C21.4717 13.9428 20.1629 12.7806 19.7051 11.7134C19.6768 11.6479 19.6441 11.5843 19.6074 11.5231V16.3497ZM30.3791 11.5771C30.842 11.122 31.2689 10.15 31.4334 9.0957C32.444 9.64856 33.3414 10.5177 34.0666 11.5951C33.7508 12.4427 33.2632 13.2157 32.6343 13.8657C32.4856 14.0209 32.3072 14.1446 32.1099 14.2296C31.9125 14.3146 31.7001 14.3592 31.4852 14.3607C31.2702 14.3622 31.0572 14.3205 30.8587 14.2383C30.6602 14.156 30.4802 14.0347 30.3293 13.8816C30.1785 13.7285 30.0599 13.5468 29.9805 13.347C29.9011 13.1473 29.8626 12.9337 29.8673 12.7188C29.8719 12.504 29.9196 12.2922 30.0075 12.0961C30.0955 11.9 30.2218 11.7235 30.3791 11.5771ZM33.344 25.9951L33.4031 25.9977L33.3851 26.0183C33.4732 27.092 33.3384 28.1723 32.9891 29.1914C32.3043 29.1241 31.6316 28.9658 30.9886 28.7208C29.4586 28.1448 27.7949 27.0108 26.4294 25.0283C26.1877 24.6771 26.0953 24.2442 26.1727 23.8249C26.2501 23.4056 26.4909 23.0342 26.8421 22.7924C27.1934 22.5507 27.6262 22.4583 28.0455 22.5357C28.4648 22.6131 28.8362 22.8539 29.078 23.2051C30.0603 24.6323 31.1866 25.3626 32.12 25.7123C32.5931 25.8923 33.0149 25.9694 33.344 25.9951Z" fill="#111827"/>
<path fill-rule="evenodd" clip-rule="evenodd" d="M16.394 15.7295C16.3503 16.2567 16.052 17.3573 15.3654 18.3601C14.684 19.3501 13.7326 20.1035 12.4237 20.2475C11.9999 20.2949 11.6122 20.5088 11.346 20.842C11.0798 21.1752 10.9569 21.6005 11.0043 22.0244C11.0517 22.4483 11.2655 22.8359 11.5988 23.1021C11.932 23.3683 12.3573 23.4912 12.7812 23.4438C14.1051 23.3006 15.3596 22.7783 16.394 21.9395V15.7295ZM4.57574 9.09269C3.64231 9.59926 2.80659 10.3784 2.11488 11.335C2.39774 11.8827 2.73716 12.3635 3.10231 12.7801C4.05116 13.8601 5.23659 14.5595 6.15716 14.7704C6.57283 14.8652 7.00914 14.791 7.37009 14.5641C7.73104 14.3372 7.98708 13.9762 8.08188 13.5605C8.17667 13.1449 8.10246 12.7086 7.87557 12.3476C7.64868 11.9867 7.28769 11.7306 6.87202 11.6358C6.72545 11.6024 6.10574 11.3298 5.51688 10.6587C4.95433 10.0198 4.61022 9.21805 4.53459 8.37012C4.53459 8.6144 4.55002 8.85355 4.57574 9.09012V9.09269ZM2.59059 26.6658C2.59059 27.0515 2.61631 27.4321 2.67288 27.805C2.96602 26.905 3.44431 26.1233 3.90202 25.7633C4.23688 25.499 4.45304 25.1125 4.50295 24.6889C4.55286 24.2652 4.43243 23.8391 4.16816 23.5043C3.90389 23.1694 3.51743 22.9532 3.09378 22.9033C2.67014 22.8534 2.24402 22.9738 1.90916 23.2381C1.66956 23.4287 1.44674 23.6395 1.24316 23.8681C1.62888 24.7115 2.09174 25.4521 2.61631 26.0178C2.59831 26.2313 2.59059 26.4473 2.59059 26.6658Z" fill="#111827"/>
</svg>
