<svg width="49" height="48" viewBox="0 0 49 48" fill="none" xmlns="http://www.w3.org/2000/svg">
<g clip-path="url(#clip0_221_1938)">
<path d="M8.83398 0H39.834C44.534 0 48.334 3.89744 48.334 8.71795V39.2821C48.334 44.1026 44.534 48 39.834 48H8.83398C4.13398 48 0.333984 44.1026 0.333984 39.2821V8.71795C0.333984 3.89744 4.13398 0 8.83398 0Z" fill="#001E36"/>
<path d="M11.1348 33.6615V12.5538C11.1348 12.4102 11.1948 12.3282 11.3348 12.3282C11.6748 12.3282 11.9948 12.3282 12.4548 12.3076C12.9348 12.2871 13.4348 12.2871 13.9748 12.2666C14.5148 12.2461 15.0948 12.2461 15.7148 12.2256C16.3348 12.2051 16.9348 12.2051 17.5348 12.2051C19.1748 12.2051 20.5348 12.4102 21.6548 12.841C22.6548 13.1897 23.5748 13.7641 24.3348 14.523C24.9748 15.1794 25.4748 15.9794 25.7948 16.8615C26.0948 17.723 26.2548 18.6051 26.2548 19.5282C26.2548 21.2923 25.8548 22.7487 25.0548 23.8974C24.2548 25.0461 23.1348 25.9076 21.8348 26.3999C20.4748 26.9128 18.9748 27.0974 17.3348 27.0974C16.8548 27.0974 16.5348 27.0974 16.3348 27.0769C16.1348 27.0564 15.8548 27.0564 15.4748 27.0564V33.641C15.4948 33.7846 15.3948 33.9076 15.2548 33.9282C15.2348 33.9282 15.2148 33.9282 15.1748 33.9282H11.3748C11.2148 33.9282 11.1348 33.8461 11.1348 33.6615ZM15.4948 16.2871V23.1794C15.7748 23.2 16.0348 23.2205 16.2748 23.2205H17.3348C18.1148 23.2205 18.8948 23.0974 19.6348 22.8512C20.2748 22.6666 20.8348 22.2769 21.2748 21.7641C21.6948 21.2512 21.8948 20.5538 21.8948 19.6512C21.9148 19.0153 21.7548 18.3794 21.4348 17.8256C21.0948 17.2923 20.6148 16.882 20.0348 16.6564C19.2948 16.3487 18.4948 16.2256 17.6748 16.2461C17.1548 16.2461 16.6948 16.2461 16.3148 16.2666C15.9148 16.2461 15.6348 16.2666 15.4948 16.2871Z" fill="#31A8FF"/>
<path d="M38.7341 21.9279C38.1341 21.5997 37.4941 21.374 36.8141 21.2305C36.0741 21.0664 35.3341 20.9638 34.5741 20.9638C34.1741 20.9433 33.7541 21.0048 33.3741 21.1074C33.1141 21.1689 32.8942 21.3125 32.7542 21.5176C32.6542 21.6817 32.5942 21.8869 32.5942 22.0715C32.5942 22.2561 32.6741 22.4407 32.7941 22.6048C32.9741 22.8305 33.2141 23.0151 33.4741 23.1587C33.9341 23.4048 34.4141 23.6305 34.8941 23.8356C35.9741 24.2048 37.0141 24.7176 37.9741 25.333C38.6341 25.7638 39.1742 26.3381 39.5542 27.0356C39.8742 27.692 40.0341 28.4099 40.0141 29.1484C40.0341 30.1125 39.7541 31.0766 39.2341 31.8766C38.6741 32.6971 37.8941 33.333 36.9942 33.7022C36.0141 34.133 34.8141 34.3587 33.3741 34.3587C32.4541 34.3587 31.5542 34.2766 30.6542 34.092C29.9542 33.9689 29.2541 33.7433 28.6141 33.4356C28.4741 33.3535 28.3741 33.2099 28.3941 33.0458V29.4766C28.3941 29.4151 28.4141 29.333 28.4741 29.292C28.5341 29.251 28.5942 29.2715 28.6542 29.3125C29.4342 29.7843 30.2541 30.1125 31.1341 30.3176C31.8941 30.5228 32.6941 30.6253 33.4941 30.6253C34.2541 30.6253 34.7942 30.5228 35.1542 30.3381C35.4742 30.1946 35.6941 29.8458 35.6941 29.4766C35.6941 29.1894 35.5341 28.9228 35.2141 28.6561C34.8941 28.3894 34.2342 28.0817 33.2542 27.692C32.2342 27.3228 31.2941 26.8305 30.4141 26.2151C29.7941 25.7638 29.2741 25.1689 28.8941 24.4715C28.5741 23.8151 28.4141 23.0971 28.4341 22.3792C28.4341 21.4971 28.6741 20.6561 29.1141 19.8971C29.6141 19.0766 30.3541 18.4202 31.2141 18.0099C32.1541 17.5176 33.3342 17.292 34.7542 17.292C35.5742 17.292 36.4141 17.3535 37.2341 17.4766C37.8341 17.5587 38.4142 17.7228 38.9542 17.9484C39.0342 17.9689 39.1142 18.051 39.1542 18.133C39.1742 18.2151 39.1941 18.2971 39.1941 18.3792V21.7228C39.1941 21.8048 39.1542 21.8869 39.0941 21.9279C38.9142 21.9689 38.8141 21.9689 38.7341 21.9279Z" fill="#31A8FF"/>
</g>
<defs>
<clipPath id="clip0_221_1938">
<rect width="48" height="48" fill="white" transform="translate(0.333984)"/>
</clipPath>
</defs>
</svg>
