<svg width="36" height="36" viewBox="0 0 36 36" fill="none" xmlns="http://www.w3.org/2000/svg">
<g clip-path="url(#clip0_221_1749)">
<path d="M14.7313 10.4072C9.97476 7.1623 5.51177 9.10665 1.66685 12.6348C1.52648 12.7668 1.41889 12.9297 1.35267 13.1106C1.28645 13.2915 1.26343 13.4854 1.28544 13.6768C1.30746 13.8682 1.3739 14.0517 1.47947 14.2129C1.58504 14.374 1.72681 14.5083 1.89347 14.6049L9.56786 19.2301" fill="#111827"/>
<path d="M25.6003 21.2773C28.8452 26.0339 26.9008 30.4969 23.3727 34.3418C23.2407 34.4822 23.0778 34.5898 22.8969 34.656C22.716 34.7222 22.5221 34.7453 22.3307 34.7232C22.1393 34.7012 21.9557 34.6348 21.7946 34.5292C21.6335 34.4236 21.4992 34.2819 21.4026 34.1152L16.7773 26.4408" fill="#111827"/>
<path d="M9.56934 19.2022L16.8059 26.4387C22.5952 22.9698 29.1777 19.6142 32.1805 16.4981C38.6805 10.0006 34.9154 1.09524 34.9154 1.09524C34.9154 1.09524 26.0126 -2.675 19.5126 3.82505C16.3965 6.83043 13.0099 13.4386 9.56934 19.2022Z" fill="#C0CCDE"/>
<path fill-rule="evenodd" clip-rule="evenodd" d="M26.3933 5.5423C25.8499 5.52864 25.3092 5.62388 24.8031 5.82241C24.297 6.02095 23.8357 6.31876 23.4465 6.69831C23.0573 7.07786 22.748 7.53147 22.5368 8.03241C22.3256 8.53335 22.2168 9.0715 22.2168 9.61514C22.2168 10.1588 22.3256 10.6969 22.5368 11.1979C22.748 11.6988 23.0573 12.1524 23.4465 12.532C23.8357 12.9115 24.297 13.2093 24.8031 13.4079C25.3092 13.6064 25.8499 13.7016 26.3933 13.688C27.4558 13.6613 28.4657 13.2204 29.2077 12.4595C29.9497 11.6986 30.365 10.6779 30.365 9.61514C30.365 8.55235 29.9497 7.53163 29.2077 6.77074C28.4657 6.00985 27.4558 5.56902 26.3933 5.5423Z" fill="#111827"/>
<path fill-rule="evenodd" clip-rule="evenodd" d="M8.71756 24.4429C7.75329 24.0536 6.69378 23.9653 5.67838 24.1896C4.66298 24.4139 3.73926 24.9404 3.02872 25.6996C2.48276 26.2688 2.05526 27.1598 1.72562 27.9839C1.36698 28.9075 1.05835 29.8497 0.801091 30.8064C0.543561 31.7464 0.332387 32.6426 0.195896 33.3225C0.136794 33.6078 0.0852699 33.8946 0.041378 34.1827C0.0243027 34.292 0.0114168 34.402 0.00274854 34.5123C-0.00551281 34.6632 0.0048667 34.8146 0.0336521 34.963C0.0937341 35.2352 0.239399 35.4811 0.449322 35.6646C0.659245 35.8482 0.9224 35.9596 1.20026 35.9828C1.2823 35.9924 1.36501 35.995 1.44749 35.9905C1.55823 35.9854 1.67927 35.9699 1.79001 35.957C2.07984 35.9147 2.3684 35.8641 2.65531 35.8051C3.33776 35.6712 4.23911 35.4626 5.18167 35.205C6.12423 34.9475 7.13117 34.6359 8.0145 34.2831C8.84375 33.9535 9.73995 33.526 10.3065 32.98C10.9385 32.3888 11.4114 31.648 11.6815 30.8258C11.9515 30.0037 12.0101 29.1267 11.8517 28.276C11.6934 27.4252 11.3232 26.628 10.7755 25.9581C10.2277 25.2882 9.51992 24.7671 8.71756 24.4429Z" fill="#111827"/>
</g>
<defs>
<clipPath id="clip0_221_1749">
<rect width="36" height="36" fill="white"/>
</clipPath>
</defs>
</svg>
