
<svg xmlns="http://www.w3.org/2000/svg" xmlns:xlink="http://www.w3.org/1999/xlink" fill="none" version="1.1" width="64" height="64" viewBox="0 0 64 64"><defs><clipPath id="master_svg0_0_14211"><rect x="0" y="0" width="64" height="64" rx="0"/></clipPath></defs><g clip-path="url(#master_svg0_0_14211)"><g><g><ellipse cx="32" cy="32" rx="32" ry="32" fill="#C0CCDE" fill-opacity="1"/></g><g><path d="M45.895552941894536,52.267075C41.943452941894535,54.981975,37.15735294189453,56.570675,32.00005294189453,56.570675C26.84275294189453,56.570675,22.056692941894532,54.981674999999996,18.104452941894532,52.266775C16.35890194189453,51.067675,15.61292894189453,48.783744999999996,16.62785194189453,46.925025C18.73176294189453,43.071735,23.066992941894533,40.671875,32.00005294189453,40.671875C40.933152941894534,40.671875,45.268352941894534,43.072025,47.37215294189453,46.925025C48.38705294189453,48.783744999999996,47.64095294189453,51.067975000000004,45.895552941894536,52.267075C45.895552941894536,52.267075,45.895552941894536,52.267075,45.895552941894536,52.267075Z" fill="#111827" fill-opacity="1"/></g><g><path d="M32.000095,32.00045C36.789725000000004,32.00045,40.672225,28.11795,40.672225,23.32834C40.672225,18.53889,36.789725000000004,14.65625,32.000095,14.65625C27.210795,14.65625,23.328125,18.53889,23.328125,23.32834C23.328125,28.11795,27.210795,32.00045,32.000095,32.00045C32.000095,32.00045,32.000095,32.00045,32.000095,32.00045Z" fill="#111827" fill-opacity="1"/></g></g></g></svg>