<svg width="36" height="36" viewBox="0 0 36 36" fill="none" xmlns="http://www.w3.org/2000/svg">
<path d="M6.42843 2.0507e-06C5.40545 2.0507e-06 4.42437 0.406378 3.70102 1.12973C2.97767 1.85309 2.57129 2.83417 2.57129 3.85714V32.1429C2.57129 33.1658 2.97767 34.1469 3.70102 34.8703C4.42437 35.5936 5.40545 36 6.42843 36H29.5713C30.5943 36 31.5753 35.5936 32.2987 34.8703C33.0221 34.1469 33.4284 33.1658 33.4284 32.1429V11.5714C33.4287 11.4025 33.3957 11.2351 33.3313 11.0789C33.2669 10.9227 33.1723 10.7808 33.053 10.6611L22.7673 0.375431C22.6477 0.256112 22.5057 0.161539 22.3495 0.0971208C22.1933 0.0327021 22.026 -0.000299699 21.857 2.0507e-06H6.42843Z" fill="#C0CCDE"/>
<path fill-rule="evenodd" clip-rule="evenodd" d="M15.3772 7.52634C15.3772 8.22503 15.0997 8.89511 14.6056 9.38916C14.1116 9.88321 13.4415 10.1608 12.7428 10.1608C12.0441 10.1608 11.374 9.88321 10.88 9.38916C10.3859 8.89511 10.1084 8.22503 10.1084 7.52634C10.1084 6.8273 10.3861 6.1569 10.8803 5.66261C11.3746 5.16832 12.045 4.89063 12.7441 4.89062C13.4431 4.89063 14.1135 5.16832 14.6078 5.66261C15.1021 6.1569 15.3772 6.8273 15.3772 7.52634ZM9.00008 20.2498C8.78903 20.2501 8.58011 20.292 8.38525 20.3731C8.19039 20.4542 8.01341 20.5728 7.86441 20.7223C7.71541 20.8718 7.59732 21.0491 7.51686 21.2443C7.43641 21.4394 7.39517 21.6484 7.39551 21.8595C7.39585 22.0705 7.43775 22.2795 7.51883 22.4743C7.59991 22.6692 7.71857 22.8462 7.86805 22.9951C8.01753 23.1441 8.19489 23.2622 8.39 23.3427C8.58512 23.4232 8.79417 23.4644 9.00522 23.4641H27.0052C27.2163 23.4637 27.4252 23.4218 27.6201 23.3407C27.8149 23.2597 27.9919 23.141 28.1409 22.9915C28.2899 22.842 28.408 22.6647 28.4884 22.4696C28.5689 22.2744 28.6101 22.0654 28.6098 21.8543C28.6095 21.6433 28.5676 21.4344 28.4865 21.2395C28.4054 21.0446 28.2867 20.8677 28.1373 20.7187C27.9878 20.5697 27.8104 20.4516 27.6153 20.3711C27.4202 20.2907 27.2111 20.2494 27.0001 20.2498H9.00008ZM9.00008 27.9641C8.78903 27.9644 8.58011 28.0063 8.38525 28.0874C8.19039 28.1684 8.01341 28.2871 7.86441 28.4366C7.71541 28.5861 7.59732 28.7634 7.51686 28.9585C7.43641 29.1537 7.39517 29.3627 7.39551 29.5738C7.39585 29.7848 7.43775 29.9937 7.51883 30.1886C7.59991 30.3835 7.71857 30.5604 7.86805 30.7094C8.01753 30.8584 8.19489 30.9765 8.39 31.057C8.58512 31.1374 8.79417 31.1787 9.00522 31.1783H19.2909C19.502 31.178 19.7109 31.1361 19.9058 31.055C20.1006 30.9739 20.2776 30.8553 20.4266 30.7058C20.5756 30.5563 20.6937 30.379 20.7742 30.1838C20.8546 29.9887 20.8958 29.7797 20.8955 29.5686C20.8952 29.3576 20.8533 29.1486 20.7722 28.9538C20.6911 28.7589 20.5724 28.582 20.423 28.433C20.2735 28.284 20.0961 28.1659 19.901 28.0854C19.7059 28.0049 19.4968 27.9637 19.2858 27.9641H9.00008ZM8.05894 13.7055C9.34518 12.5511 11.0132 11.9135 12.7415 11.9158C14.5415 11.9158 16.1821 12.5921 17.4267 13.7055C18.1647 14.3663 17.5887 15.4283 16.5961 15.4283H8.88694C7.89694 15.4283 7.31837 14.3663 8.05894 13.7055Z" fill="#111827"/>
</svg>
