<svg width="36" height="36" viewBox="0 0 36 36" fill="none" xmlns="http://www.w3.org/2000/svg">
<g clip-path="url(#clip0_221_1763)">
<path d="M0 3.85714C0 2.83416 0.406376 1.85309 1.12973 1.12973C1.85309 0.406376 2.83416 0 3.85714 0L32.1429 0C33.1658 0 34.1469 0.406376 34.8703 1.12973C35.5936 1.85309 36 2.83416 36 3.85714V32.1429C36 33.1658 35.5936 34.1469 34.8703 34.8703C34.1469 35.5936 33.1658 36 32.1429 36H3.85714C2.83416 36 1.85309 35.5936 1.12973 34.8703C0.406376 34.1469 0 33.1658 0 32.1429L0 3.85714Z" fill="#C0CCDE"/>
<path fill-rule="evenodd" clip-rule="evenodd" d="M3.85714 0H32.1429C33.1658 0 34.1469 0.406376 34.8703 1.12973C35.5936 1.85309 36 2.83416 36 3.85714V10.2857H13.2609V20.0726H36V23.9297H13.2609V36H9.40371V10.2857H0V3.85714C0 2.83416 0.406376 1.85309 1.12973 1.12973C1.85309 0.406376 2.83416 0 3.85714 0Z" fill="#111827"/>
</g>
<defs>
<clipPath id="clip0_221_1763">
<rect width="36" height="36" fill="white"/>
</clipPath>
</defs>
</svg>
