<svg width="36" height="36" viewBox="0 0 36 36" fill="none" xmlns="http://www.w3.org/2000/svg">
<g clip-path="url(#clip0_221_1761)">
<path fill-rule="evenodd" clip-rule="evenodd" d="M12.4611 0H2.76686C1.242 0 0 1.23943 0 2.76943V12.4637C0 13.9911 1.23943 15.2306 2.76943 15.2306H12.4637C13.9911 15.2306 15.2306 13.9911 15.2306 12.4611V2.76686C15.2306 1.242 13.9911 0 12.4611 0ZM33.2306 20.7694H23.5363C22.0089 20.7694 20.7694 22.0089 20.7694 23.5389V33.2331C20.7694 34.7606 22.0089 36 23.5389 36H33.2331C34.7606 36 36 34.7606 36 33.2306V23.5363C36 22.0089 34.7606 20.7694 33.2306 20.7694ZM2.76943 20.7694H12.4637C13.9911 20.7694 15.2306 22.0089 15.2306 23.5389V33.2331C15.2306 34.7606 13.9911 36 12.4611 36H2.76686C2.0328 35.9993 1.32905 35.7072 0.810237 35.1879C0.291425 34.6686 -3.16421e-07 33.9646 0 33.2306L0 23.5363C0 22.0089 1.23943 20.7694 2.76943 20.7694Z" fill="#C0CCDE"/>
<path fill-rule="evenodd" clip-rule="evenodd" d="M29.5982 1.92857C29.5982 1.41708 29.395 0.926543 29.0333 0.564865C28.6716 0.203188 28.1811 0 27.6696 0C27.1581 0 26.6676 0.203188 26.3059 0.564865C25.9442 0.926543 25.741 1.41708 25.741 1.92857V6.38486H21.2899C21.0366 6.38486 20.7859 6.43474 20.5519 6.53166C20.3179 6.62858 20.1053 6.77064 19.9262 6.94972C19.7471 7.12881 19.6051 7.34141 19.5081 7.5754C19.4112 7.80938 19.3613 8.06017 19.3613 8.31343C19.3613 8.56669 19.4112 8.81748 19.5081 9.05146C19.6051 9.28545 19.7471 9.49805 19.9262 9.67713C20.1053 9.85622 20.3179 9.99828 20.5519 10.0952C20.7859 10.1921 21.0366 10.242 21.2899 10.242H25.7462V14.6957C25.7462 15.2072 25.9494 15.6977 26.3111 16.0594C26.6727 16.4211 27.1633 16.6243 27.6748 16.6243C28.1862 16.6243 28.6768 16.4211 29.0385 16.0594C29.4001 15.6977 29.6033 15.2072 29.6033 14.6957V10.242H34.057C34.3103 10.242 34.5611 10.1921 34.7951 10.0952C35.0291 9.99828 35.2417 9.85622 35.4207 9.67713C35.5998 9.49805 35.7419 9.28545 35.8388 9.05146C35.9357 8.81748 35.9856 8.56669 35.9856 8.31343C35.9856 8.06017 35.9357 7.80938 35.8388 7.5754C35.7419 7.34141 35.5998 7.12881 35.4207 6.94972C35.2417 6.77064 35.0291 6.62858 34.7951 6.53166C34.5611 6.43474 34.3103 6.38486 34.057 6.38486H29.6033V1.92857H29.5982Z" fill="#111827"/>
</g>
<defs>
<clipPath id="clip0_221_1761">
<rect width="36" height="36" fill="white"/>
</clipPath>
</defs>
</svg>
