<svg width="49" height="48" viewBox="0 0 49 48" fill="none" xmlns="http://www.w3.org/2000/svg">
<g clip-path="url(#clip0_221_1933)">
<path d="M0.666016 17.3714C0.666016 11.2909 0.666016 8.25057 1.84937 5.9281C2.89028 3.88521 4.55122 2.22427 6.59412 1.18335C8.91658 0 11.9569 0 18.0374 0H31.2946C37.3752 0 40.4155 0 42.7378 1.18335C44.7808 2.22427 46.4417 3.88521 47.4826 5.9281C48.666 8.25057 48.666 11.2909 48.666 17.3714V30.6286C48.666 36.7092 48.666 39.7495 47.4826 42.0718C46.4417 44.1147 44.7808 45.7757 42.7378 46.8166C40.4155 48 37.3752 48 31.2946 48H18.0374C11.9569 48 8.91658 48 6.59412 46.8166C4.55122 45.7757 2.89028 44.1147 1.84937 42.0718C0.666016 39.7495 0.666016 36.7092 0.666016 30.6286V17.3714Z" fill="#470137"/>
<path d="M25.7746 14.1151L19.7854 24.254L26.193 35.0203C26.3262 35.2644 26.193 35.3184 26 35.3184H21.4277C21.1056 35.3184 20.8801 35.3067 20.7514 35.0864C20.3216 34.2278 19.8924 33.3746 19.4633 32.5268C19.0337 31.6795 18.5775 30.8153 18.0949 29.9343C17.6118 29.054 17.1342 28.1624 16.662 27.2594C16.2324 28.1402 15.7546 29.0208 15.2934 29.9014C14.8316 30.7822 14.3754 31.6574 13.9249 32.5268C13.4742 33.3968 13.0126 34.261 12.5404 35.1194C12.4543 35.3175 12.3039 35.3379 12.0895 35.3379H7.67817C7.50484 35.3379 7.48393 35.2076 7.58159 35.0534L13.7961 24.5842L7.74253 14.082C7.63257 13.9322 7.7272 13.7726 7.90357 13.7847H12.4437C12.6403 13.7738 12.814 13.8478 12.9267 14.016C13.3131 14.8968 13.7425 15.7776 14.2147 16.658C14.6866 17.5388 15.1644 18.4087 15.6476 19.267C16.1307 20.1257 16.6083 20.9954 17.0161 21.8762C17.4452 20.9736 17.88 20.093 18.3202 19.2341C18.7601 18.3754 19.2108 17.5112 19.6726 16.6416C20.1341 15.7721 20.5794 14.9079 21.0089 14.0491C21.066 13.8607 21.2024 13.7652 21.3953 13.7847H25.6134C25.7746 13.7847 25.8411 14.0047 25.7746 14.1151Z" fill="#FF61F6"/>
<path d="M35.0147 35.7471C32.175 35.7915 29.2006 34.6222 27.7054 32.0318C26.9754 30.7881 26.6105 29.2305 26.6106 27.3586C26.5985 25.8429 26.9761 24.3506 27.7054 23.0323C29.5872 19.6685 33.3781 18.4082 36.979 18.739V12.2329C36.979 12.0791 37.0434 12.0017 37.1722 12.0017H41.2294C41.3403 11.9855 41.4383 12.0861 41.4226 12.1999V31.7181C41.4226 32.5233 41.5025 33.3257 41.5515 34.1289C41.5594 34.266 41.48 34.4018 41.3581 34.4592C39.3536 35.3167 37.1845 35.7372 35.0147 35.7471ZM36.979 31.6519V22.6359C34.0379 21.8189 31.1826 24.059 31.183 27.1605C31.1132 30.367 33.8773 32.5824 36.979 31.6519Z" fill="#FF61F6"/>
</g>
<defs>
<clipPath id="clip0_221_1933">
<rect width="48" height="48" fill="white" transform="translate(0.666016)"/>
</clipPath>
</defs>
</svg>
